<svg width="836" height="1000" viewBox="0 0 836 1000" fill="none" xmlns="http://www.w3.org/2000/svg">
<path id="AO" fill-rule="evenodd" clip-rule="evenodd" d="M412.999 598.599L376.999 598.399L372.699 600.099L369.199 599.799L364.099 601.699L362.999 604.399L368.999 613.099L371.399 622.399L374.999 635.799L371.199 641.299L370.599 644.099L373.499 652.399L376.599 660.799L380.199 665.799L380.799 673.599L379.399 683.899L375.399 689.999L368.299 699.099L365.399 704.699L361.299 717.199L360.499 723.099L356.199 735.799L354.299 747.999L355.299 756.699L361.199 753.999L368.399 751.699L376.199 752.099L383.299 758.399L385.199 757.399L433.999 756.799L442.199 763.399L471.299 765.399L493.699 759.699L486.099 751.099L478.299 739.799L479.899 695.799L505.199 695.899L504.199 691.199L506.199 685.999L504.199 679.499L505.699 672.799L504.499 668.499L498.999 667.699L491.399 669.699L486.099 669.399L483.099 670.699L483.999 654.199L480.099 649.099L479.299 640.599L481.199 632.199L478.799 626.899L478.699 618.199L463.899 618.299L464.999 613.299L458.799 613.399L458.099 615.799L450.499 616.299L447.399 624.399L445.499 627.799L438.799 625.899L434.799 627.799L426.699 628.899L422.099 621.699L419.399 617.199L415.899 608.899L412.999 598.599ZM365.599 595.899L365.999 589.899L367.999 586.399L372.499 583.499L367.899 578.699L364.199 580.999L359.199 586.999L362.499 597.399L365.599 595.899Z" fill="#01aca8" stroke="#ffffff" stroke-width="0.5" stroke-linejoin="round"/>
<path fill-rule="evenodd" clip-rule="evenodd" d="M586.698 556.101L586.098 550.701L579.598 549.801L575.798 557.701L568.398 556.601L571.398 562.901L571.498 565.301L575.798 578.501V579.101L576.998 578.901L581.498 573.901L586.398 566.701L589.398 563.801L589.298 559.301L586.698 556.101Z" fill="#9ca3af" stroke="#ffffff" stroke-width="0.5" stroke-linejoin="round"/>
<path fill-rule="evenodd" clip-rule="evenodd" d="M257.699 356L248.399 348L244.099 348.1L239.999 352.1L237.399 356.3L231.399 357.5L228.899 363.6L224.799 365.2L223.199 372.4L226.899 376.5L231.199 381.4L231.599 388.2L234.099 391L233.599 422.8L236.599 432.3L246.699 430.7L247.299 408.4L246.999 399.6L249.299 390.9L252.999 386.6L258.899 378.1L257.599 374.4L259.999 368.8L257.199 360.6L257.699 356Z" fill="#9ca3af" stroke="#ffffff" stroke-width="0.5" stroke-linejoin="round"/>
<path fill-rule="evenodd" clip-rule="evenodd" d="M218.399 310.799H210.599L207.599 308.199L200.899 310.099L189.599 315.899L187.299 320.199L177.899 326.399L176.199 329.999L171.099 332.799L165.299 330.899L161.899 334.299L160.099 343.799L150.399 355.199L150.699 359.899L147.299 365.799L148.099 373.799L153.599 376.799L155.699 381.399L161.099 384.299L165.399 380.899L171.099 380.299L179.399 383.899L177.799 373.499L178.099 365.599L199.199 364.999L204.599 365.999L208.499 363.799L214.099 364.899L224.799 365.199L228.899 363.599L231.399 357.499L237.399 356.299L239.999 352.099L240.299 342.599L226.299 339.499L225.899 332.799L218.999 323.799L217.399 317.499L218.399 310.799Z" fill="#9ca3af" stroke="#ffffff" stroke-width="0.5" stroke-linejoin="round"/>
<path fill-rule="evenodd" clip-rule="evenodd" d="M518.3 762.699L516.1 761.699L509.2 764.799H505.6L497.7 770.199L493.3 764.499L474.6 769.399L465.6 769.799L463.7 819.099L451.9 819.599L450.5 859.999L453.7 861.999L460.2 875.199L458.7 883.599L461.2 888.499L469.7 887.099L475.9 880.899L481.7 876.699L484.9 870.099L490.9 866.899L495.8 868.599L501.3 872.499L510.9 873.099L518.7 869.899L520.1 865.599L522.5 858.999L529 857.899L532.9 852.699L537.3 843.399L548.5 833.099L565.8 822.899L558.5 816.699L549.3 814.599L546.2 805.799L546.4 800.899L541.3 799.399L528.3 784.199L524.8 776.199L522.5 773.799L518.3 762.699Z" fill="#9ca3af" stroke="#ffffff" stroke-width="0.5" stroke-linejoin="round"/>
<path fill-rule="evenodd" clip-rule="evenodd" d="M504.699 398.099L503.699 397.399L499.499 393.399L498.599 389.099L500.499 383.399L500.399 377.699L493.199 369.099L491.699 363.199L483.999 365.499L477.999 371.099L469.399 386.199L458.099 392.599L446.299 391.799L442.899 392.999L444.099 397.899L437.799 402.699L432.699 408.099L417.399 413.399L414.399 410.299L412.299 409.999L410.099 413.599L400.099 414.599L393.999 428.599L391.099 431.199L390.299 441.899L391.499 447.699L390.599 451.799L396.399 459.099L397.399 463.999L401.999 471.199L407.599 475.599L408.199 481.899L409.499 485.899L415.799 473.099L423.099 465.699L431.299 468.099L439.199 468.799L440.199 459.199L444.899 452.099L451.399 447.699L461.499 452.399L469.299 457.499L478.299 458.899L487.399 461.599L490.999 453.199L492.599 452.099L498.199 453.499L511.699 446.599L516.599 449.599L520.499 449.099L522.299 445.799L526.799 444.599L535.999 445.999L543.899 446.399L547.899 444.899L545.899 440.499L536.699 434.999L533.499 426.699L528.299 420.699L519.999 413.499L519.899 408.999L513.099 403.499L504.699 398.099Z" fill="#9ca3af" stroke="#ffffff" stroke-width="0.5" stroke-linejoin="round"/>
<path fill-rule="evenodd" clip-rule="evenodd" d="M148.098 373.799L143.098 375.899L140.198 377.599L138.398 371.699L134.898 373.299L132.798 372.999L130.498 376.999L121.098 376.899L117.798 374.799L116.198 376.099L113.698 377.199L112.698 381.899L115.498 387.599L118.498 398.699L113.898 400.299L112.798 402.199L113.698 404.899L112.898 410.999H110.998L110.398 414.999L111.598 421.699L108.898 427.799L112.498 431.599L116.298 432.499L121.498 438.299L121.798 443.799L120.698 445.499L119.698 456.899L121.998 457.299L134.098 452.199L142.598 448.199L157.098 445.799L164.898 445.599L173.398 448.299L178.998 448.199L179.498 442.699L174.298 430.799L177.498 415.199L182.598 403.599L179.398 383.899L171.098 380.299L165.398 380.899L161.098 384.299L155.698 381.399L153.598 376.799L148.098 373.799Z" fill="#9ca3af" stroke="#ffffff" stroke-width="0.5" stroke-linejoin="round"/>
<path fill-rule="evenodd" clip-rule="evenodd" d="M395.2 366.6L395.6 357.4L394.6 348.3L389.7 339.4L386.3 340.2L385.9 344.6L390.8 350.1L389.5 352.6L389 357.2L378.8 367.9L375.7 376.7L374.1 383.9L371.5 387L369.1 396.7L362.7 402.4L360.8 409.4L358.1 415L357 420.7L348.7 425.4L341.8 419.7L337.2 419.9L330 428L326.4 428.1L320.7 441.5L317.6 451.3L317.5 455.1L320.6 457.1L323.1 463.3L328.7 465.6L333.5 474.8L331.7 485.7L351.6 486L357.4 485.1L364.8 487L372.1 485.2L373.6 485.9L389 486.5L398.9 490.1L408.6 493.4L409.5 485.9L408.2 481.9L407.6 475.6L402 471.2L397.4 464L396.4 459.1L390.6 451.8L391.5 447.7L390.3 441.9L391.1 431.2L394 428.6L400.1 414.6L401.9 410.9L398 401.3L396.2 395.6L390.9 393.3L383.7 385.2L386.2 378.7L391.8 380L395.2 379.1L402 379.2L395.2 366.6Z" fill="#9ca3af" stroke="#ffffff" stroke-width="0.5" stroke-linejoin="round"/>
<path id="CD" fill-rule="evenodd" clip-rule="evenodd" d="M536 446L526.8 444.6L522.3 445.8L520.5 449.1L516.6 449.6L511.7 446.6L498.2 453.5L492.6 452.1L491 453.2L487.4 461.6L478.3 458.9L469.3 457.5L461.5 452.4L451.4 447.7L444.9 452.1L440.2 459.2L439.2 468.8L438.5 477.2L434.9 484.6L432.5 493.2L431 505.5L431.7 513.3L429.7 518.1L429.4 523.2L428 527.6L419.9 534.3L414.3 541.4L409 554.8L409.3 566.2L406.2 570.6L399 577.4L391.8 586.1L387.3 583.6L386.5 579.7L379.9 579.6L375.7 584.9L372.5 583.5L368 586.4L366 589.9L365.6 595.9L362.5 597.4L364.1 601.7L369.2 599.8L372.7 600.1L377 598.4L413 598.6L415.9 608.9L419.4 617.2L422.1 621.7L426.7 628.9L434.8 627.8L438.8 625.9L445.5 627.8L447.4 624.4L450.5 616.3L458.1 615.8L458.8 613.4L465 613.3L463.9 618.3L478.7 618.2L478.8 626.9L481.2 632.2L479.3 640.6L480.1 649.1L484 654.2L483.1 670.7L486.1 669.4L491.4 669.7L499 667.7L504.5 668.5L508.7 668.8L509.3 673.1L515 672.8L522.7 674.1L526.6 680.3L536.3 682.3L543.8 677.9L546.4 685.2L555.6 687.1L559.9 693L564.7 700.6L574 700.7L573.4 685.8L570 688.3L561.6 682.9L558.4 680.5L560.3 666.6L562.8 650.2L560.2 644.1L563.8 635.3L567.1 633.6L583.5 631.3L585.6 631.9L586.2 629.6L582.8 625.9L581.3 618.3L574 610.7L569.9 600.8L572.2 595L569 587.2L571.4 565.1L571.5 565.3L571.4 562.9L568.4 556.6L569.6 549L571.3 548L571.8 539.7L575.3 535.9L575.4 525.4L578.3 520.1L578.9 509L581.5 502.6L586.1 495.4L590.8 491.7L594.7 486.8L589.8 484.9L590.4 468.8L579.5 459.6L576.6 453.7L569.8 456.6L564.1 455.7L560.9 458L555.4 456.3L547.9 444.9L543.9 446.4L536 446Z" fill="#01aca8" stroke="#ffffff" stroke-width="0.5" stroke-linejoin="round"/>
<path fill-rule="evenodd" clip-rule="evenodd" d="M439.199 468.799L431.299 468.099L423.099 465.699L415.799 473.099L409.499 485.899L408.599 493.399L398.899 490.099L388.999 486.499L373.599 485.899L372.699 491.999L376.099 499.099L385.199 497.999L388.299 500.699L382.999 516.799L388.799 524.999L390.099 535.799L388.499 544.999L384.799 551.499L373.999 550.899L367.499 544.299L366.499 550.399L358.199 552.099L353.999 555.599L358.599 564.699L349.299 572.399L359.199 586.999L364.199 580.999L367.899 578.699L372.499 583.499L375.699 584.899L379.899 579.599L386.499 579.699L387.299 583.599L391.799 586.099L398.999 577.399L406.199 570.599L409.299 566.199L408.999 554.799L414.299 541.399L419.899 534.299L427.999 527.599L429.399 523.199L429.699 518.099L431.699 513.299L430.999 505.499L432.499 493.199L434.899 484.599L438.499 477.199L439.199 468.799Z" fill="#9ca3af" stroke="#ffffff" stroke-width="0.5" stroke-linejoin="round"/>
<path fill-rule="evenodd" clip-rule="evenodd" d="M737.998 358.7L732.698 354.9L739.498 351.6L739.598 345.9L736.598 341.6L732.998 345L727.798 343.8L723.798 349.9L719.898 356.4L720.998 360.2L721.298 364.4L728.098 364.6L730.998 363.7L733.798 366.1L737.998 358.7Z" fill="#9ca3af" stroke="#ffffff" stroke-width="0.5" stroke-linejoin="round"/>
<path id="MA" fill-rule="evenodd" clip-rule="evenodd" d="M310.099 5.70078L302.299 6.50078L297.499 3.30078L285.299 3.40078L274.699 8.90078L268.899 6.80078L249.999 8.00078L230.599 10.5008L219.599 14.8008L212.399 20.6008L199.999 23.0008L188.899 30.7008L193.099 39.7008L193.799 48.1008L197.699 62.8008L200.799 65.7008L198.599 71.1008L183.399 73.4008L177.999 78.5008L171.299 79.7008L170.699 89.9008L156.899 95.3008L152.299 102.301L142.699 106.001L130.899 108.101L111.699 118.301L111.499 134.601V135.601L111.199 138.301L155.299 171.801L195.299 202.001L235.699 232.201L238.599 238.601L246.099 242.601L251.599 244.801L251.799 253.601L265.099 252.301L281.999 246.101L316.499 219.001L356.999 192.601L351.599 183.901L341.999 177.501L336.499 180.001L332.199 172.301L331.599 166.401L324.399 156.301L328.999 150.501L327.699 141.801L329.099 134.201L328.099 127.901L329.899 116.601L329.099 110.201L324.999 98.0008L319.299 73.3008L311.999 67.7008L311.799 64.4008L302.099 56.1008L300.799 45.7008L307.799 37.9008L310.199 26.3008L307.899 12.9008L310.099 5.70078Z" fill="#01aca8" stroke="#ffffff" stroke-width="0.5" stroke-linejoin="round"/>
<path id="EG" fill-rule="evenodd" clip-rule="evenodd" d="M546.5 88.1004L534.6 84.1004L523.1 80.4004L507.5 80.6004L503.8 87.2004L506 93.1004L503.6 101.6L507.8 112.8L510.7 162L512.9 212.9H561H607.4H654.8L652.6 210.1L637.9 197.7L637 188.7L639.2 186.3L627.6 171L623.2 163.1L618.3 155.6L607.8 134L599.4 120.1L593.3 105.6L594.4 104.3L604.5 124.1L610.3 130.3L614.6 134.7L617.1 132.3L619.8 125.1L621.4 114.7L624.2 109.1L622.7 105.6L614.2 85.5004L608.8 88.9004L599.6 88.1004L590 84.9004L587.7 89.4004L583.9 82.6004L575.4 80.8004L565.2 82.0004L560.7 85.9004L552.1 90.3004L546.5 88.1004Z" fill="#01aca8" stroke="#ffffff" stroke-width="0.5" stroke-linejoin="round"/>
<path fill-rule="evenodd" clip-rule="evenodd" d="M695.298 303.801L688.298 297.001L684.298 284.301L676.498 268.301L670.798 276.201L661.998 278.501L658.398 282.701L657.698 291.901L653.398 312.201L654.898 317.801L669.198 320.701L672.498 310.301L680.098 316.601L687.098 313.401L690.098 316.301L698.398 316.401L709.198 322.001L712.598 326.801L718.098 331.201L723.498 339.301L727.798 343.801L732.998 345.001L736.598 341.601L730.398 337.401L726.398 332.701L719.498 324.701L712.398 316.801L695.298 303.801Z" fill="#9ca3af" stroke="#ffffff" stroke-width="0.5" stroke-linejoin="round"/>
<path fill-rule="evenodd" clip-rule="evenodd" d="M672.498 310.301L669.198 320.701L654.898 317.801L653.498 329.701L648.998 343.301L641.898 350.101L637.098 360.701L635.998 366.401L630.398 370.201L627.098 384.701L627.198 386.401L627.598 397.201L625.798 401.401L619.398 401.701L615.398 409.601L622.898 410.601L629.198 417.301L631.398 422.901L637.098 426.101L644.498 441.101L650.898 443.501L650.998 451.201L655.198 455.801H663.698L679.398 467.501L683.198 467.701L686.098 467.301L688.798 468.901L696.998 470.001L700.498 464.201L711.598 458.401L716.498 463.101H724.898L728.198 458.701L735.998 458.501L746.698 448.701L762.598 448.101L796.098 406.601L785.798 406.701L745.498 390.301L740.698 385.301L736.098 378.701L731.298 371.001L733.798 366.101L730.998 363.701L728.098 364.601L721.298 364.401L720.998 360.201L719.898 356.401L723.798 349.901L727.798 343.801L723.498 339.301L718.098 331.201L712.598 326.801L709.198 322.001L698.398 316.401L690.098 316.301L687.098 313.401L680.098 316.601L672.498 310.301Z" fill="#9ca3af" stroke="#ffffff" stroke-width="0.5" stroke-linejoin="round"/>
<path fill-rule="evenodd" clip-rule="evenodd" d="M373.598 485.9L372.098 485.2L364.798 487L357.398 485.1L351.598 486L351.698 502.7L333.998 502.5L329.798 503.3L327.398 513.6L324.398 523.7L321.698 528.1L321.398 532.7L328.698 547L336.798 558.4L349.298 572.4L358.598 564.7L353.998 555.6L358.198 552.1L366.498 550.4L367.498 544.3L373.998 550.9L384.798 551.5L388.498 545L390.098 535.8L388.798 525L382.998 516.8L388.298 500.7L385.198 498L376.098 499.1L372.698 492L373.598 485.9Z" fill="#9ca3af" stroke="#ffffff" stroke-width="0.5" stroke-linejoin="round"/>
<path fill-rule="evenodd" clip-rule="evenodd" d="M214.099 364.901L208.499 363.801L204.599 366.001L199.199 365.001L178.099 365.601L177.799 373.501L179.399 383.901L182.599 403.601L177.499 415.201L174.299 430.801L179.499 442.701L178.999 448.201L189.899 452.101L200.899 448.101L207.599 443.401L226.799 435.301L223.999 430.401L220.799 421.601L219.799 414.801L222.499 402.301L219.499 397.301L218.299 386.401V376.301L213.199 369.201L214.099 364.901Z" fill="#9ca3af" stroke="#ffffff" stroke-width="0.5" stroke-linejoin="round"/>
<path fill-rule="evenodd" clip-rule="evenodd" d="M74.0984 345.199L72.2984 345.899L65.6984 344.799L64.7984 346.399L62.0984 346.699L53.3984 343.299L47.5984 343.199L47.2984 347.899L45.9984 349.299L46.8984 353.899L44.9984 355.699L42.2984 355.799L39.0984 358.099L35.3984 357.799L29.8984 364.599L33.4984 366.799L35.1984 369.899L36.4984 375.999L39.4984 378.699L42.5984 380.499L47.2984 385.899L52.5984 394.099L59.0984 387.999L60.5984 384.199L62.6984 381.199L65.9984 380.899L68.8984 378.299H78.5984L81.8984 383.299L84.4984 389.099L84.0984 393.099L85.9984 396.699L85.8984 401.799L89.1984 400.999L91.7984 400.699L94.9984 399.099L100.098 407.599L99.1984 413.199L101.598 416.099L104.998 416.199L107.598 410.599L110.998 410.999H112.898L113.698 404.899L112.798 402.199L113.898 400.299L118.498 398.699L115.498 387.599L112.698 381.899L113.698 377.199L116.198 376.099L112.498 372.099L113.198 367.999L111.598 366.399L108.998 367.699L109.598 363.199L112.098 359.699L107.098 353.899L105.698 350.099L102.998 346.999L100.598 346.699L97.6984 348.599L93.6984 350.399L90.3984 353.399L85.1984 352.299L81.8984 348.799L79.8984 348.399L76.6984 350.199H74.6984L74.0984 345.199Z" fill="#9ca3af" stroke="#ffffff" stroke-width="0.5" stroke-linejoin="round"/>
<path fill-rule="evenodd" clip-rule="evenodd" d="M9.59961 335.401L20.5996 335.601L23.5996 333.701L25.7996 333.601L30.2996 330.401L35.4996 333.301L40.6996 333.601L45.9996 330.501L43.5996 326.501L39.5996 328.801L35.7996 328.701L31.0996 325.301L27.2996 325.501L24.4996 328.801L11.2996 329.201L9.59961 335.401Z" fill="#9ca3af" stroke="#ffffff" stroke-width="0.5" stroke-linejoin="round"/>
<path fill-rule="evenodd" clip-rule="evenodd" d="M47.5984 343.2L25.1984 342.6L21.8984 344.2L17.8984 343.7L11.3984 346L12.0984 348.9L15.7984 351.9L15.6984 354L18.3984 357.9L23.4984 358.8L29.8984 364.6L35.3984 357.8L39.0984 358.1L42.2984 355.8L44.9984 355.7L46.8984 353.9L45.9984 349.3L47.2984 347.9L47.5984 343.2Z" fill="#9ca3af" stroke="#ffffff" stroke-width="0.5" stroke-linejoin="round"/>
<path fill-rule="evenodd" clip-rule="evenodd" d="M351.6 485.999L331.7 485.699L327.6 501.199L329.8 503.299L334 502.499L351.7 502.699L351.6 485.999Z" fill="#9ca3af" stroke="#ffffff" stroke-width="0.5" stroke-linejoin="round"/>
<path id="KE" fill-rule="evenodd" clip-rule="evenodd" d="M724.9 463.1H716.5L711.6 458.4L700.5 464.2L697 470L688.8 468.9L686.1 467.3L683.2 467.7L679.4 467.5L663.7 455.8H655.2L651 451.2L650.9 443.5L644.5 441.1L636.4 450.2L629 458.5L634.9 468.1L636.4 475.1L641.9 490.9L637.5 501L631.6 510.2L628.1 515.8V516.5L631 521.7L630.2 532L674.3 560.2L675 568.2L692.3 582L697.3 577.4L699.8 568.2L703.8 562.7L705.7 552.9L710.3 551.9L713.4 546.1L722 540.6L714.8 529.2L714.4 478.8L724.9 463.1Z" fill="#01aca8" stroke="#ffffff" stroke-width="0.5" stroke-linejoin="round"/>
<path fill-rule="evenodd" clip-rule="evenodd" d="M110.998 411L107.598 410.6L104.998 416.2L101.598 416.1L99.1984 413.2L100.098 407.6L94.9984 399.1L91.7984 400.7L89.1984 401L83.4984 407.5L77.9984 415L77.2984 419L74.3984 423.4L82.4984 432.3L92.8984 439.9L103.898 450.4L116.498 457L119.698 456.9L120.698 445.5L121.798 443.8L121.498 438.3L116.298 432.5L112.498 431.6L108.898 427.8L111.598 421.7L110.398 415L110.998 411Z" fill="#9ca3af" stroke="#ffffff" stroke-width="0.5" stroke-linejoin="round"/>
<path fill-rule="evenodd" clip-rule="evenodd" d="M507.498 80.6L504.398 76.1L492.698 74.5L488.798 72.1H484.398L479.998 65.9L464.098 63.1L456.198 64.9L448.298 71.4L444.998 78.1L448.398 88.7L443.098 95L437.598 98.6L424.698 91.7L407.998 86L397.398 83.3L391.298 71L375.598 64.9L365.798 62.6L360.998 63.8L347.198 59L346.898 69.6L341.298 73.6L337.898 78L329.998 83.3L331.498 89L330.598 94.8L324.998 98L329.098 110.2L329.898 116.6L328.098 127.9L329.098 134.2L327.698 141.8L328.998 150.5L324.398 156.3L331.598 166.4L332.198 172.3L336.498 180L341.998 177.5L351.598 183.9L356.998 192.6L375.998 198.6L382.898 206.1L391.198 201L403.098 193.4L451.498 219.9L500.198 246.4L500.098 240.6H513.898L512.898 212.9L510.698 162L507.798 112.8L503.598 101.6L505.998 93.1L503.798 87.2L507.498 80.6Z" fill="#9ca3af" stroke="#ffffff" stroke-width="0.5" stroke-linejoin="round"/>
<path fill-rule="evenodd" clip-rule="evenodd" d="M542.999 939.899L545.499 935.499L552.199 933.299L554.599 928.799L558.699 922.099L554.899 917.899L550.099 913.699L544.399 916.499L537.599 921.899L530.699 930.599L538.699 941.199L542.999 939.899Z" fill="#9ca3af" stroke="#ffffff" stroke-width="0.5" stroke-linejoin="round"/>
<path fill-rule="evenodd" clip-rule="evenodd" d="M188.9 30.7004L183.9 30.6004L172 27.5004L161 28.4004L154.2 22.5004L145.7 22.4004L141.9 31.0004L133.9 45.5004L125.2 51.2004L113.4 57.6004L105.7 66.9004L103.9 74.2004L99.1 86.0004L101.6 103.2L91.5 114.7L85.5 118.4L75.9 127.8L64.9 129.4L58.8 134.7L58.6 134.9L50.7 149L42.6 154.1L38.1 162.6L37.6 170L34.2 178.1L30.2 180.3L23.3 189.1L18.9 198.9L19.6 203.5L15.5 210.8L10.8 214.5L10 220.9L10.2 221L37.2 219.9L38.8 214.9L43.8 208.7L48.2 189.6L65.1 174.6L71.1 157.2L74.8 156.1L79 145.3L89 143.9L93.2 145.7H98.6L102.5 142.5L109.8 142.1L109.7 134.6H111.5L111.7 118.3L130.9 108.1L142.7 106L152.3 102.3L156.9 95.3004L170.7 89.9004L171.3 79.7004L178 78.5004L183.4 73.4004L198.6 71.1004L200.8 65.7004L197.7 62.8004L193.8 48.1004L193.1 39.7004L188.9 30.7004Z" fill="#9ca3af" stroke="#ffffff" stroke-width="0.5" stroke-linejoin="round"/>
<path fill-rule="evenodd" clip-rule="evenodd" d="M820.599 704.8L818.099 695.7L815.099 689.8L811.199 683.9L806.899 690.1L806.199 698.4L799.099 708L793.999 706.3L795.299 712.3L791.299 719.2L780.899 727.7L773.599 735.6L768.199 735.8L763.599 738.3L756.699 741.1L750.699 741.7L748.499 750.4L743.799 758.2L743.999 770.9L745.699 779.6L748.099 786.2L746.399 795L739.999 805.5L739.699 810.1L733.999 812.5L731.199 822.5L731.599 832.4L734.999 843.4L734.899 855.7L737.499 863L746.599 868L753.099 871.5L763.999 865.7L773.899 862.4L780.699 846.3L786.799 827.1L796.099 800.9L803.399 781.8L809.299 765.7L810.899 754L814.399 750.8L815.899 744.9L814.199 734.7L816.799 730.6L820.299 738.7L822.699 734.6L824.399 728L821.599 721.5L820.599 704.8Z" fill="#9ca3af" stroke="#ffffff" stroke-width="0.5" stroke-linejoin="round"/>
<path fill-rule="evenodd" clip-rule="evenodd" d="M265.1 252.301L251.8 253.601L251.6 244.801L246.1 242.601L238.6 238.601L235.7 232.201L195.3 202.001L155.3 171.801L137.1 172.001L142.2 231.701L147.6 291.401L149.6 293.201L146.9 302.801L98.4 303.001L96.5 306.101L91.9 305.201L85 307.901L76.6 304.101L72.8 304.401L70.6 312.601L66.5 315.101L66.9 323.701L69.2 331.601L73.7 335.501L74.7 340.801L74.1 345.201L74.7 350.201H76.7L79.9 348.401L81.9 348.801L85.2 352.301L90.4 353.401L93.7 350.401L97.7 348.601L100.6 346.701L103 347.001L105.7 350.101L107.1 353.901L112.1 359.701L109.6 363.201L109 367.701L111.6 366.401L113.2 368.001L112.5 372.101L116.2 376.101L117.8 374.801L121.1 376.901L130.5 377.001L132.8 373.001L134.9 373.301L138.4 371.701L140.2 377.601L143.1 375.901L148.1 373.801L147.3 365.801L150.7 359.901L150.4 355.201L160.1 343.801L161.9 334.301L165.3 330.901L171.1 332.801L176.2 330.001L177.9 326.401L187.3 320.201L189.6 315.901L200.9 310.101L207.6 308.201L210.6 310.801H218.4L226.1 310.201L230.6 305.301L247.1 304.101L257.8 301.901L258.8 293.401L265.4 284.201L265.1 252.301Z" fill="#9ca3af" stroke="#ffffff" stroke-width="0.5" stroke-linejoin="round"/>
<path id="TZ" fill-rule="evenodd" clip-rule="evenodd" d="M705.9 666.2L704.2 660L694.2 668.1L680.8 673.4L673.5 673.2L669 677.4L660.6 677.7L657.3 679.5L642.9 675.6L638.2 676.1L634.9 689.2L636.3 705H637L641.2 709.4L645.8 719.4L646.1 737.2L640.7 740.2L636.6 749.8L629.1 741.2L628.6 731.5L631.5 725L631 719.5L626.3 716L623 717.2L616.2 710.6L579.1 722L579.9 731.9L580.5 737L590.5 736.7L596 739.7L598.5 743.1L604.2 744.1L610.3 748.5L609.5 766L606.7 775.6L605.7 786L607.4 790.1L605.7 798.2L603.8 799.5L600.2 809.4L586.8 825.1L591.5 844.6L594 854.5L591 869.9L591.7 874.9L593 881.1L593.6 887.2L602.6 887.3L604.1 880L601.2 879.1L600.6 873.3L606.1 868.1L620.9 860.6L631 856L636.3 851L638.4 845.3L635.7 842.9L638.1 836.5L639.2 822.9L637 823.6L637.1 819.5L635.2 811.4L630 800.9L631.6 791L636.7 787.8L645.6 778L650.3 775.5L664.7 760.6L678.7 753.9L690 748.6L698.1 740.1L703.3 730.5L707.4 720.6L705.6 713.8L706 692.2L705 680L705.9 666.2Z" fill="#01aca8" stroke="#ffffff" stroke-width="0.5" stroke-linejoin="round"/>
<path fill-rule="evenodd" clip-rule="evenodd" d="M155.298 171.801L111.198 138.301L110.698 159.201L71.7984 158.501L71.3984 193.901L60.1984 195.201L57.0984 202.301L58.9984 222.301L12.0984 222.201L9.39844 226.801L15.4984 232.801L18.4984 239.301L17.0984 246.201L18.3984 253.101L19.3984 266.801L17.5984 279.801L14.0984 286.601L14.9984 294.101L19.1984 289.601L25.1984 290.801L31.0984 287.801L37.8984 287.701L43.5984 291.701L51.4984 295.401L58.6984 305.601L66.4984 315.101L70.5984 312.601L72.7984 304.401L76.5984 304.101L84.9984 307.901L91.8984 305.201L96.4984 306.101L98.3984 303.001L146.898 302.801L149.598 293.201L147.598 291.401L142.198 231.701L137.098 172.001L155.298 171.801Z" fill="#9ca3af" stroke="#ffffff" stroke-width="0.5" stroke-linejoin="round"/>
<path fill-rule="evenodd" clip-rule="evenodd" d="M632.3 711.7L632.6 706.5L629.9 702.4L630.3 696.4L627 686.2L630.7 678.5L630.5 661.8L626.4 652.9L626.8 651.4L624.5 647.6L612.6 645L618.2 651.2L621 662.9L618.8 666.7L616.1 677.9L618.1 689.4L614.1 694.2L610 707L616.2 710.6L623 717.2L626.3 716L631 719.5L631.5 725L628.6 731.5L629.1 741.2L636.6 749.8L640.7 740.2L646.1 737.2L645.8 719.4L641.2 709.4L637 705H636.3L636.4 706.9L638.7 707.4L640.9 714.8L640.5 716.5L636.4 711.2L634.2 714.6L632.3 711.7Z" fill="#9ca3af" stroke="#ffffff" stroke-width="0.5" stroke-linejoin="round"/>
<path id="MZ" fill-rule="evenodd" clip-rule="evenodd" d="M493.699 759.699L471.299 765.399L442.199 763.399L433.999 756.799L385.199 757.399L383.299 758.399L376.199 752.099L368.399 751.699L361.199 753.999L355.299 756.699L355.899 767.299L365.399 780.799L367.899 789.499L373.899 806.099L379.799 817.499L384.399 823.199L385.699 830.799L385.599 847.299L388.999 868.599L391.599 878.699L393.799 892.099L398.099 902.199L406.399 912.699L412.399 905.899L416.899 909.599L418.599 915.599L423.799 916.599L431.099 919.199L437.499 918.199L448.299 911.099L450.499 859.999L451.899 819.599L463.699 819.099L465.599 769.799L474.599 769.399L493.299 764.499L497.699 770.199L505.599 764.799H509.199L516.099 761.699V760.499L511.399 757.399L503.599 756.599L493.699 759.699Z" fill="#01aca8" stroke="#ffffff" stroke-width="0.5" stroke-linejoin="round"/>
<path fill-rule="evenodd" clip-rule="evenodd" d="M375.998 198.6L356.998 192.6L316.498 219L281.998 246.1L265.098 252.3L265.398 284.2L258.798 293.4L257.798 301.9L247.098 304.1L230.598 305.3L226.098 310.2L218.398 310.8L217.398 317.5L218.998 323.8L225.898 332.8L226.298 339.5L240.298 342.6L239.998 352.1L244.098 348.1L248.398 348L257.698 356L258.498 343.6L261.998 338.1L263.598 330.1L266.798 327.1L279.798 325.5L291.998 330.6L296.598 335.9L302.698 336.1L308.498 332.7L323.198 339.8L329.398 339.5L336.498 333.6L343.598 334L347.098 332.1L353.598 332.9L362.998 336.9L372.398 329.2L375.298 329.8L383.698 344.9L385.898 344.6L386.298 340.2L389.698 339.4L390.798 332.9L382.998 332.6L382.898 323.7L377.798 318.5L382.698 300.3L397.898 287.3L398.098 269.3L402.098 241.2L404.598 235.2L399.498 230.5L399.198 226.1L394.598 222.5L391.198 201L382.898 206.1L375.998 198.6Z" fill="#9ca3af" stroke="#ffffff" stroke-width="0.5" stroke-linejoin="round"/>
<path id="NG" fill-rule="evenodd" clip-rule="evenodd" d="M385.899 344.6L383.699 344.9L375.299 329.8L372.399 329.2L362.999 336.9L353.599 332.9L347.099 332.1L343.599 334L336.499 333.6L329.399 339.5L323.199 339.8L308.499 332.7L302.699 336.1L296.599 335.9L291.999 330.6L279.799 325.5L266.799 327.1L263.599 330.1L261.999 338.1L258.499 343.6L257.699 356L257.199 360.6L259.999 368.8L257.599 374.4L258.899 378.1L252.999 386.6L249.299 390.9L246.999 399.6L247.299 408.4L246.699 430.7H257.399L266.599 430.6L275.199 439.7L279.299 449.7L285.799 458.3L295.599 458.6L300.299 455.5L304.899 456.3L317.599 451.3L320.699 441.5L326.399 428.1L329.999 428L337.199 419.9L341.799 419.7L348.699 425.4L356.999 420.7L358.099 415L360.799 409.4L362.699 402.4L369.099 396.7L371.499 387L374.099 383.9L375.699 376.7L378.799 367.9L388.999 357.2L389.499 352.6L390.799 350.1L385.899 344.6Z" fill="#01aca8" stroke="#ffffff" stroke-width="0.5" stroke-linejoin="round"/>
<path fill-rule="evenodd" clip-rule="evenodd" d="M585.598 533L578.198 537.3L575.298 535.9L571.798 539.7L571.298 548L569.598 549L568.398 556.6L575.798 557.7L579.598 549.8L586.098 550.7L589.598 548.9L590.398 540.8L585.598 533Z" fill="#9ca3af" stroke="#ffffff" stroke-width="0.5" stroke-linejoin="round"/>
<path fill-rule="evenodd" clip-rule="evenodd" d="M111.498 134.6H109.698L109.798 142.1L102.498 142.5L98.5984 145.7H93.1984L88.9984 143.9L78.9984 145.3L74.7984 156.1L71.0984 157.2L65.0984 174.6L48.1984 189.6L43.7984 208.7L38.7984 214.9L37.1984 219.9L10.1984 221L9.99844 220.9L9.39844 226.8L12.0984 222.2L58.9984 222.3L57.0984 202.3L60.1984 195.2L71.3984 193.9L71.7984 158.5L110.698 159.2L111.198 138.3L111.498 135.6V134.6Z" fill="#9ca3af" stroke="#ffffff" stroke-width="0.5" stroke-linejoin="round"/>
<path fill-rule="evenodd" clip-rule="evenodd" d="M657.7 291.9L658.4 282.7L662 278.5L670.8 276.2L676.5 268.3L669.6 263.2L664.8 259.8L659.5 243.3L657 229L659.5 226.5L654.8 212.9H607.4H561H512.9L513.9 240.6H500.1L500.2 246.4L502.6 301.3L492.1 300.4L486.9 310.6L483.9 319.1L486.5 322.3L482.7 326.6L484.2 332.3L481.2 338.1L480 343.1L484.3 342.3L486.9 347.7L487.2 355.7L491.8 359.8L491.7 363.2L493.2 369.1L500.4 377.7L500.5 383.4L498.6 389.1L499.5 393.4L503.7 397.4L504.7 398.1L508.5 396.5L512.6 393.9L515.5 381.6L518.7 375.2L527.5 373.3L529.6 377.1L536.1 385.1L539.4 386.3L543.8 384L552.5 384.4L554.3 387.3H566.4L566.7 384.4L573 381.8L574.1 377.8L578.7 374.9L589.1 383L595.3 381.6L601.1 371.6L607.6 364L606.3 355.7L603.3 351.7L610.6 350.9L611.3 347.9L617 348.8L615.8 359L617.5 369L624 374.5L625.5 379.2V386.1L627.2 386.4L627.1 384.7L630.4 370.2L636 366.4L637.1 360.7L641.9 350.1L649 343.3L653.5 329.7L654.9 317.8L653.4 312.2L657.7 291.9Z" fill="#9ca3af" stroke="#ffffff" stroke-width="0.5" stroke-linejoin="round"/>
<path id="ET" fill-rule="evenodd" clip-rule="evenodd" d="M625.499 379.2L623.999 374.5L617.499 369L615.799 359L616.999 348.8L611.299 347.9L610.599 350.9L603.299 351.7L606.299 355.7L607.599 364L601.099 371.6L595.299 381.6L589.099 383L578.699 374.9L574.099 377.8L572.999 381.8L566.699 384.4L566.399 387.3H554.299L552.499 384.4L543.799 384L539.399 386.3L536.099 385.1L529.599 377.1L527.499 373.3L518.699 375.2L515.499 381.6L512.599 393.9L508.499 396.5L504.699 398.1L513.099 403.5L519.899 409L519.999 413.5L528.299 420.7L533.499 426.7L536.699 435L545.899 440.5L547.899 444.9L555.399 456.3L560.899 458L564.099 455.7L569.799 456.6L576.599 453.7L579.499 459.6L590.399 468.8L595.399 465L603.199 468.1L612.999 464.8L621.599 464.9L628.999 458.5L636.399 450.2L644.499 441.1L637.099 426.1L631.399 422.9L629.199 417.3L622.899 410.6L615.399 409.6L619.399 401.7L625.799 401.4L627.599 397.2L627.199 386.4L625.499 386.1V379.2Z" fill="#01aca8" stroke="#ffffff" stroke-width="0.5" stroke-linejoin="round"/>
<path fill-rule="evenodd" clip-rule="evenodd" d="M66.5 315.099L58.7 305.599L51.5 295.399L43.6 291.699L37.9 287.699L31.1 287.799L25.2 290.799L19.2 289.599L15 294.099L12 301.199L5.89999 310.899L0.5 313.499L6.5 318.399L11.3 329.199L24.5 328.799L27.3 325.499L31.1 325.299L35.8 328.699L39.6 328.799L43.6 326.499L46 330.499L40.7 333.599L35.5 333.299L30.3 330.399L25.8 333.599L23.6 333.699L20.6 335.599L9.6 335.399L11.4 345.999L17.9 343.699L21.9 344.199L25.2 342.599L47.6 343.199L53.4 343.299L62.1 346.699L64.8 346.399L65.7 344.799L72.3 345.899L74.1 345.199L74.7 340.799L73.7 335.499L69.2 331.599L66.9 323.699L66.5 315.099Z" fill="#9ca3af" stroke="#ffffff" stroke-width="0.5" stroke-linejoin="round"/>
<path fill-rule="evenodd" clip-rule="evenodd" d="M89.1996 401.001L85.8996 401.801L85.9996 396.701L84.0996 393.101L84.4996 389.101L81.8996 383.301L78.5996 378.301H68.8996L65.9996 380.901L62.6996 381.201L60.5996 384.201L59.0996 388.001L52.5996 394.101L53.9996 404.401L56.0996 409.401L62.3996 416.801L71.0996 422.401L74.3996 423.401L77.2996 419.001L77.9996 415.001L83.4996 407.501L89.1996 401.001Z" fill="#9ca3af" stroke="#ffffff" stroke-width="0.5" stroke-linejoin="round"/>
<path fill-rule="evenodd" clip-rule="evenodd" d="M591.699 874.901L585.899 872.301L582.399 873.301L580.999 877.301L577.399 882.501L577.199 887.301L583.799 894.801L590.799 893.301L593.599 887.201L592.999 881.101L591.699 874.901Z" fill="#9ca3af" stroke="#ffffff" stroke-width="0.5" stroke-linejoin="round"/>
<path fill-rule="evenodd" clip-rule="evenodd" d="M500.199 246.4L451.499 219.9L403.099 193.4L391.199 201L394.599 222.5L399.199 226.1L399.499 230.5L404.599 235.2L402.099 241.2L398.099 269.3L397.899 287.3L382.699 300.3L377.799 318.5L382.899 323.7L382.999 332.6L390.799 332.9L389.699 339.4L394.599 348.3L395.599 357.4L395.199 366.6L401.999 379.2L395.199 379.1L391.799 380L386.199 378.7L383.699 385.2L390.899 393.3L396.199 395.6L397.999 401.3L401.899 410.9L400.099 414.6L410.099 413.6L412.299 410L414.399 410.3L417.399 413.4L432.699 408.1L437.799 402.7L444.099 397.9L442.899 393L446.299 391.8L458.099 392.6L469.399 386.2L477.999 371.1L483.999 365.5L491.699 363.2L491.799 359.8L487.199 355.7L486.899 347.7L484.299 342.3L479.999 343.1L481.199 338.1L484.199 332.3L482.699 326.6L486.499 322.3L483.899 319.1L486.899 310.6L492.099 300.4L502.599 301.3L500.199 246.4Z" fill="#9ca3af" stroke="#ffffff" stroke-width="0.5" stroke-linejoin="round"/>
<path fill-rule="evenodd" clip-rule="evenodd" d="M224.799 365.2L214.099 364.9L213.199 369.2L218.299 376.3V386.4L219.499 397.3L222.499 402.3L219.799 414.8L220.799 421.6L223.999 430.4L226.799 435.3L236.599 432.3L233.599 422.8L234.099 391L231.599 388.2L231.199 381.4L226.899 376.5L223.199 372.4L224.799 365.2Z" fill="#9ca3af" stroke="#ffffff" stroke-width="0.5" stroke-linejoin="round"/>
<path fill-rule="evenodd" clip-rule="evenodd" d="M347.199 59L342.699 56.8L339.499 50.2L333.499 50L331.099 42.4L338.399 35.4L339.499 23.3L335.399 19.8L335.199 13.3L340.699 6.3L339.799 3.6L330.299 8.8L330.399 1.7L322.299 0L310.099 5.7L307.899 12.9L310.199 26.3L307.799 37.9L300.799 45.7L302.099 56.1L311.799 64.4L311.999 67.7L319.299 73.3L324.999 98L330.599 94.8L331.499 89L329.999 83.3L337.899 78L341.299 73.6L346.899 69.6L347.199 59Z" fill="#9ca3af" stroke="#ffffff" stroke-width="0.5" stroke-linejoin="round"/>
<path id="UG" fill-rule="evenodd" clip-rule="evenodd" d="M589.9 531.301L585.6 533.001L590.4 540.801L589.6 548.901L586.1 550.701L586.7 556.101L589.3 559.301L589.4 563.801L586.4 566.701L581.5 573.901L577 578.901L575.8 579.101L575.1 585.001L577.4 587.001L576.9 592.901L579.2 598.401L576.3 603.701L586 613.101L586.8 621.601L592.7 635.801L593.3 636.201L598.1 638.501L605.8 640.901L612.6 645.001L624.5 647.601L626.8 651.401L627.6 648.701L633.8 656.101L634.4 670.601L638.3 675.901L638.2 676.101L642.9 675.601L657.3 679.501L660.6 677.701L669 677.401L673.5 673.201L680.8 673.401L694.2 668.101L704.2 660.001L699.8 657.001L695.1 643.401L691.1 634.701L692.1 628.101L691.5 623.901L695 615.501L694.7 611.901L687 606.901L686.4 599.101L692.3 582.001L675 568.201L674.3 560.201L630.2 532.001L624.2 538.101L620.1 544.401L624.9 549.101L617.9 552.501L616.4 550.901L609.3 551.801L603.8 554.901L600.5 549.501L602.8 539.801L603.3 531.501L589.9 531.301Z" fill="#01aca8" stroke="#ffffff" stroke-width="0.5" stroke-linejoin="round"/>
<path id="SS" fill-rule="evenodd" clip-rule="evenodd" d="M628.999 458.5L621.599 464.9L612.999 464.8L603.199 468.1L595.399 465L590.399 468.8L589.799 484.9L594.699 486.8L590.799 491.7L586.099 495.4L581.499 502.6L578.899 509L578.299 520.1L575.399 525.4L575.299 535.9L578.199 537.3L585.599 533L589.899 531.3L603.299 531.5L602.599 526.2L608.299 518.1L615.999 516.1L621.199 512.8L627.499 515.5L628.099 516.5V515.8L631.599 510.2L637.499 501L641.899 490.9L636.399 475.1L634.899 468.1L628.999 458.5Z" fill="#01aca8" stroke="#ffffff" stroke-width="0.5" stroke-linejoin="round"/>
<path id="ZA" fill-rule="evenodd" clip-rule="evenodd" d="M439.998 999L445.298 998.7L452.798 993.4L462.798 991.2L475.098 985.7L479.798 986.4L486.998 984.7L499.298 987.4L505.198 984.8L512.098 986.8L513.898 983L519.898 982.2L532.498 976.9L541.798 970.6L550.698 962.3L565.098 948.1L572.598 938.2L576.498 931.1L581.998 924.1L584.498 922.1L593.098 915.1L596.598 908.9L598.898 897.4L602.598 887.3L593.598 887.2L590.798 893.3L583.798 894.8L577.198 887.3L577.398 882.5L580.998 877.3L582.398 873.3L585.898 872.3L591.698 874.9L590.998 869.9L593.998 854.5L591.498 844.6L586.798 825.1L580.498 823.8L576.398 825.4L570.698 823.1L565.798 822.9L548.498 833.1L537.298 843.4L532.898 852.7L528.998 857.9L522.498 859L520.098 865.6L518.698 869.9L510.898 873.1L501.298 872.5L495.798 868.6L490.898 866.9L484.898 870.1L481.698 876.7L475.898 880.9L469.698 887.1L461.198 888.5L458.698 883.6L460.198 875.2L453.698 862L450.498 860L448.298 911.1L437.498 918.2L431.098 919.2L423.798 916.6L418.598 915.6L416.898 909.6L412.398 905.9L406.398 912.7L414.098 930.6V930.7L419.498 942.4L426.398 955.2L426.198 965.8L422.298 968.3L425.498 977.6L424.998 985.7L426.298 989.5L426.998 987.6L431.598 993.8L435.398 994L439.998 999ZM542.998 939.9L538.698 941.2L530.698 930.6L537.598 921.9L544.398 916.5L550.098 913.7L554.898 917.9L558.698 922.1L554.598 928.8L552.198 933.3L545.498 935.5L542.998 939.9Z" fill="#01aca8" stroke="#ffffff" stroke-width="0.5" stroke-linejoin="round"/>
<path id="TZ2" fill-rule="evenodd" clip-rule="evenodd" d="M588.999 636.001L584.899 634.901L585.599 631.901L583.499 631.301L567.099 633.601L563.799 635.301L560.199 644.101L562.799 650.201L560.299 666.601L558.399 680.501L561.599 682.901L569.999 688.301L573.399 685.801L573.999 700.701L564.699 700.601L559.899 693.001L555.599 687.101L546.399 685.201L543.799 677.901L536.299 682.301L526.599 680.301L522.699 674.101L514.999 672.801L509.299 673.101L508.699 668.801L504.499 668.501L505.699 672.801L504.199 679.501L506.199 686.001L504.199 691.201L505.199 695.901L479.899 695.801L478.299 739.801L486.099 751.101L493.699 759.701L503.599 756.601L511.399 757.401L516.099 760.501V761.701L518.299 762.701L531.699 764.201L535.499 765.801L539.599 765.501L546.599 756.501L557.499 745.101L561.899 744.101L563.599 739.301L570.599 733.801L579.899 731.901L579.099 722.001L616.199 710.601L609.999 707.001L614.099 694.201L618.099 689.401L616.099 677.901L618.799 666.701L620.999 662.901L618.199 651.201L612.599 645.001L605.799 640.901L598.099 638.501L593.299 636.201L592.699 635.801L593.599 638.101L591.599 638.901L588.999 636.001Z" fill="#01aca8" stroke="#ffffff" stroke-width="0.5" stroke-linejoin="round"/>
<path fill-rule="evenodd" clip-rule="evenodd" d="M586.799 825.1L600.199 809.4L603.799 799.5L605.699 798.2L607.399 790.1L605.699 786L606.699 775.6L609.499 766L610.299 748.5L604.199 744.1L598.499 743.1L595.999 739.7L590.499 736.7L580.499 737L579.899 731.9L570.599 733.8L563.599 739.3L561.899 744.1L557.499 745.1L546.599 756.5L539.599 765.5L535.499 765.8L531.699 764.2L518.299 762.7L522.499 773.8L524.799 776.2L528.299 784.2L541.299 799.4L546.399 800.9L546.199 805.8L549.299 814.6L558.499 816.7L565.799 822.9L570.699 823.1L576.399 825.4L580.499 823.8L586.799 825.1Z" fill="#9ca3af" stroke="#ffffff" stroke-width="0.5" stroke-linejoin="round"/>
<path fill-rule="evenodd" clip-rule="evenodd" d="M750.298 372.8L744.598 367L742.098 361.3L737.998 358.7L733.798 366.1L731.298 371L736.098 378.7L740.698 385.3L745.498 390.3L785.798 406.7L796.098 406.6L762.598 448.1L746.698 448.7L735.998 458.5L728.198 458.7L724.898 463.1L714.398 478.8L714.798 529.2L721.998 540.6L724.698 537.3L727.598 530L740.998 513.3L752.398 502.7L770.498 489L782.598 477.8L796.698 458.9L806.798 443.4L816.798 423.2L823.798 405.5L829.198 390L832.098 375.1L834.498 370.1L834.098 362.8L834.898 354.8L834.398 350.9L829.798 351L824.298 355.7L817.898 357.1L812.398 359.2L808.498 359.4L801.598 359.9L797.398 362.5L791.398 363.4L780.898 367.7L767.698 369.3L756.398 372.8H750.298Z" fill="#9ca3af" stroke="#ffffff" stroke-width="0.5" stroke-linejoin="round"/>
</svg>