<svg width="2174" height="542" viewBox="0 0 2174 542" fill="none" xmlns="http://www.w3.org/2000/svg">
<path d="M100.163 230.957L200.326 535.603H0L100.163 230.957Z" fill="white"/>
<g filter="url(#filter0_d_25_61)">
<path d="M260.778 14L432 535.603H89.5566L260.778 14Z" fill="white"/>
</g>
<path d="M643.073 231.238H586.836C585.827 231.238 585.071 231.911 584.567 233.256L570.949 269.318C568.427 275.539 567.166 280.666 567.166 284.701C567.166 289.913 570.528 292.519 577.253 292.519H581.036C583.558 292.519 584.819 293.191 584.819 294.536C584.819 296.218 583.39 297.058 580.532 297.058C577.842 297.058 573.302 296.89 566.914 296.554C560.693 296.386 556.322 296.302 553.8 296.302L542.956 296.806C535.559 296.974 529.254 297.058 524.042 297.058C520.848 297.058 519.251 296.218 519.251 294.536C519.251 293.191 520.428 292.519 522.781 292.519C524.967 292.519 527.405 292.351 530.095 292.015C535.475 291.342 539.678 289.241 542.704 285.71C545.73 282.011 548.672 276.547 551.53 269.318L614.829 110.947C617.687 104.222 620.04 100.859 621.89 100.859C623.739 100.859 625.841 103.549 628.194 108.929C629.876 112.796 639.206 136.165 656.187 179.036C673.335 221.739 684.852 250.068 690.736 264.022C697.629 280.498 705.026 289.661 712.928 291.51C716.291 292.183 719.821 292.519 723.52 292.519C725.705 292.519 726.798 293.191 726.798 294.536C726.798 296.218 722.931 297.058 715.198 297.058C695.696 297.058 679.22 296.89 665.77 296.554C661.903 296.386 659.97 295.713 659.97 294.536C659.97 293.191 661.146 292.435 663.5 292.267C664.509 291.931 665.265 291.258 665.77 290.249C666.274 289.072 666.274 287.812 665.77 286.467L645.595 233.004C645.091 231.827 644.25 231.238 643.073 231.238ZM591.88 218.629H638.282C639.459 218.629 639.879 218.125 639.543 217.116L616.846 154.827C616.005 151.969 615.081 151.969 614.072 154.827L590.871 216.864C590.535 218.041 590.871 218.629 591.88 218.629ZM760.461 196.755V226.856C760.461 241.619 761.822 253.014 764.546 261.041C767.413 268.925 771.641 275.16 777.231 279.747C784.398 285.623 793.356 288.562 804.106 288.562C816.147 288.562 826.037 284.692 833.777 276.951C839.08 271.648 842.449 264.911 843.882 256.741C845.459 248.428 846.247 237.391 846.247 223.631V196.755C846.247 170.955 846.104 155.761 845.817 151.175C845.53 147.304 844.742 144.509 843.452 142.789C842.305 140.926 840.012 139.636 836.572 138.919C834.852 138.489 832.272 138.274 828.832 138.274C826.395 138.274 825.177 137.629 825.177 136.339C825.177 135.049 826.682 134.404 829.692 134.404C831.699 134.404 833.92 134.476 836.357 134.619C838.794 134.619 841.015 134.619 843.022 134.619C845.172 134.619 847.107 134.691 848.827 134.834C850.547 134.834 851.909 134.906 852.912 135.049H854.417C854.847 135.049 858.216 134.978 864.522 134.834C870.829 134.548 875.631 134.404 878.928 134.404C881.938 134.404 883.443 135.049 883.443 136.339C883.443 137.629 882.153 138.274 879.573 138.274C877.996 138.274 875.918 138.489 873.338 138.919C870.471 139.493 868.464 140.711 867.317 142.574C866.314 144.438 865.669 147.304 865.382 151.175C865.096 155.761 864.952 170.955 864.952 196.755V219.761C864.952 234.381 863.591 247.066 860.867 257.816C858.144 268.566 852.697 277.453 844.527 284.477C832.487 294.797 817.58 299.957 799.806 299.957C778.879 299.957 762.969 295.012 752.076 285.122C739.319 273.655 732.94 254.663 732.94 228.146V196.755C732.94 170.955 732.797 155.761 732.51 151.175C732.224 147.304 731.435 144.509 730.145 142.789C728.999 140.926 726.705 139.636 723.265 138.919C721.545 138.489 718.75 138.274 714.88 138.274C712.443 138.274 711.225 137.629 711.225 136.339C711.225 135.049 712.802 134.404 715.955 134.404C720.112 134.404 725.917 134.548 733.37 134.834C740.967 134.978 745.626 135.049 747.346 135.049C748.779 135.049 752.864 134.978 759.601 134.834C766.338 134.548 771.068 134.404 773.791 134.404C776.944 134.404 778.521 135.049 778.521 136.339C778.521 137.629 777.374 138.274 775.081 138.274C773.504 138.274 771.426 138.489 768.846 138.919C765.979 139.493 763.973 140.711 762.826 142.574C761.822 144.438 761.177 147.304 760.891 151.175C760.604 155.761 760.461 170.955 760.461 196.755ZM1051.48 258.891V282.542C1051.48 285.408 1051.34 287.272 1051.05 288.132C1050.76 288.848 1049.98 289.565 1048.69 290.282C1036.36 296.732 1019.09 299.957 996.87 299.957C983.254 299.957 970.64 298.308 959.03 295.012C947.42 291.715 936.956 286.77 927.639 280.177C918.323 273.583 910.941 264.768 905.494 253.731C900.191 242.694 897.539 230.009 897.539 215.676C897.539 199.479 901.051 185.36 908.074 173.32C915.241 161.136 924.199 151.82 934.949 145.369C944.266 139.779 953.44 136.053 962.47 134.189C971.643 132.326 981.749 131.394 992.785 131.394C1006.69 131.394 1019.37 132.541 1030.84 134.834C1038.15 136.268 1043.81 137.056 1047.83 137.199C1049.83 137.343 1050.84 138.203 1050.84 139.779C1050.84 139.923 1050.69 141.141 1050.41 143.434C1050.12 145.728 1049.83 149.598 1049.55 155.045C1049.4 160.491 1049.33 167.156 1049.33 175.04C1049.33 178.05 1048.54 179.555 1046.97 179.555C1045.82 179.555 1045.1 178.623 1044.82 176.76C1043.81 169.02 1041.38 163.071 1037.51 158.915C1033.49 154.758 1027.26 150.96 1018.8 147.519C1010.34 143.936 1000.6 142.144 989.56 142.144C971.93 142.144 957.74 146.588 946.99 155.475C933.803 166.511 927.209 184.07 927.209 208.15C927.209 231.657 934.089 251.008 947.85 266.201C961.61 281.395 979.67 288.992 1002.03 288.992C1010.77 288.992 1016.87 288.203 1020.31 286.627C1023.03 285.337 1024.39 282.685 1024.39 278.671V258.461C1024.39 245.848 1024.32 237.391 1024.18 233.091C1024.03 229.364 1023.32 226.569 1022.03 224.706C1020.74 222.842 1018.37 221.552 1014.93 220.836C1013.21 220.406 1010.42 220.191 1006.55 220.191C1004.4 220.191 1003.32 219.617 1003.32 218.471C1003.32 217.037 1004.83 216.321 1007.84 216.321C1011.99 216.321 1017.8 216.464 1025.25 216.751C1032.7 216.894 1037.29 216.966 1039.01 216.966C1041.16 216.966 1045.25 216.894 1051.27 216.751C1057.43 216.464 1061.73 216.321 1064.17 216.321C1067.03 216.321 1068.47 217.037 1068.47 218.471C1068.47 219.617 1067.53 220.191 1065.67 220.191C1064.38 220.191 1062.45 220.406 1059.87 220.836C1054.56 221.839 1051.84 225.924 1051.7 233.091C1051.55 237.391 1051.48 245.991 1051.48 258.891ZM1250.3 136.339L1269.87 269.211C1270.87 276.378 1272.09 281.61 1273.52 284.907C1274.96 288.06 1277.25 290.067 1280.4 290.927C1284.99 292.36 1289.43 293.077 1293.73 293.077C1296.03 293.077 1297.17 293.578 1297.17 294.582C1297.17 296.158 1295.31 296.947 1291.58 296.947C1273.95 296.947 1259.41 296.517 1247.94 295.657C1243.78 295.227 1241.7 294.438 1241.7 293.292C1241.7 292.432 1242.49 291.643 1244.07 290.927C1245.65 290.353 1246 287.272 1245.14 281.682L1232.03 185.79L1184.51 284.692C1181.93 289.995 1180.21 293.363 1179.35 294.797C1178.49 296.087 1177.56 296.732 1176.56 296.732C1175.41 296.732 1172.9 293.148 1169.03 285.982C1154.84 258.748 1146.6 242.479 1144.31 237.176C1143.73 235.886 1142.16 232.446 1139.58 226.856C1137 221.266 1133.7 214.314 1129.69 206C1125.82 197.687 1123.02 191.667 1121.3 187.94L1109.91 275.016C1109.48 278.886 1109.26 282.255 1109.26 285.122C1109.26 288.705 1111.41 290.998 1115.71 292.002C1118.87 292.718 1121.88 293.077 1124.74 293.077C1126.89 293.077 1127.97 293.578 1127.97 294.582C1127.97 296.158 1126.25 296.947 1122.81 296.947C1119.37 296.947 1114.92 296.803 1109.48 296.517C1104.17 296.373 1101.09 296.302 1100.23 296.302C1099.08 296.302 1095.86 296.373 1090.56 296.517C1085.4 296.803 1081.53 296.947 1078.95 296.947C1076.37 296.947 1075.08 296.158 1075.08 294.582C1075.08 293.578 1076.22 293.077 1078.52 293.077C1080.67 293.077 1082.82 292.862 1084.97 292.432C1089.27 291.428 1092.2 285.767 1093.78 275.446L1115.07 135.264C1115.78 131.538 1117 129.674 1118.72 129.674C1120.44 129.674 1122.38 131.896 1124.53 136.339L1183.22 257.601L1241.7 134.834C1243.42 131.394 1245 129.674 1246.43 129.674C1248.44 129.674 1249.73 131.896 1250.3 136.339ZM1327.05 234.596V196.755C1327.05 170.955 1326.91 155.761 1326.62 151.175C1326.34 147.304 1325.55 144.509 1324.26 142.789C1323.11 140.926 1320.82 139.636 1317.38 138.919C1315.66 138.489 1312.86 138.274 1308.99 138.274C1306.56 138.274 1305.34 137.629 1305.34 136.339C1305.34 135.049 1306.91 134.404 1310.07 134.404C1313.22 134.404 1318.17 134.548 1324.9 134.834C1331.78 134.978 1337.16 135.049 1341.03 135.049C1374.14 135.049 1392.06 134.978 1394.78 134.834C1399.51 134.404 1402.59 133.974 1404.02 133.544C1404.17 133.544 1404.67 133.401 1405.53 133.114C1406.39 132.828 1407.03 132.684 1407.46 132.684C1408.32 132.684 1408.75 133.329 1408.75 134.619C1408.75 134.906 1408.61 135.551 1408.32 136.554C1408.18 137.414 1407.97 138.919 1407.68 141.069C1407.39 143.219 1407.18 145.728 1407.03 148.594C1407.03 148.881 1406.89 151.103 1406.6 155.26C1406.32 159.273 1406.1 161.781 1405.96 162.785C1405.67 164.361 1404.96 165.15 1403.81 165.15C1402.52 165.15 1401.87 163.86 1401.87 161.28C1401.87 158.7 1401.44 156.406 1400.58 154.4C1399.72 152.25 1398.36 150.601 1396.5 149.454C1394.64 148.164 1391.2 147.233 1386.18 146.659C1381.31 146.086 1371.13 145.799 1355.65 145.799C1354.65 145.799 1354.14 146.516 1354.14 147.949V202.345C1354.14 203.922 1354.65 204.71 1355.65 204.71C1375.29 204.71 1386.75 204.567 1390.05 204.28C1395.35 203.85 1398.79 202.775 1400.37 201.055C1401.95 199.192 1403.09 198.26 1403.81 198.26C1404.81 198.26 1405.31 198.834 1405.31 199.98C1405.31 200.267 1405.24 200.984 1405.1 202.13C1404.96 203.134 1404.74 204.854 1404.45 207.29C1404.17 209.727 1403.88 212.522 1403.59 215.676C1403.59 216.822 1403.52 218.542 1403.38 220.836C1403.24 223.129 1403.09 225.136 1402.95 226.856C1402.81 228.576 1402.73 229.651 1402.73 230.081C1402.73 232.804 1402.09 234.166 1400.8 234.166C1399.51 234.166 1398.86 233.019 1398.86 230.726C1398.58 227.716 1398.29 225.637 1398 224.491C1396.86 219.617 1392.84 216.822 1385.96 216.106C1381.95 215.676 1371.77 215.461 1355.43 215.461C1354.57 215.461 1354.14 216.177 1354.14 217.611V234.596V267.921C1354.43 275.518 1356.08 280.463 1359.09 282.757C1362.24 284.907 1369.19 285.982 1379.94 285.982C1389.69 285.982 1396.43 285.122 1400.15 283.402C1405.17 281.108 1408.4 275.805 1409.83 267.491C1410.26 265.341 1411.05 264.266 1412.19 264.266C1413.34 264.266 1413.91 265.556 1413.91 268.136C1413.91 276.593 1412.98 284.548 1411.12 292.002C1410.4 294.582 1409.4 296.158 1408.11 296.732C1406.82 297.305 1403.95 297.592 1399.51 297.592C1393.35 297.592 1383.67 297.377 1370.48 296.947C1357.44 296.517 1347.26 296.302 1339.95 296.302C1337.23 296.302 1332.86 296.373 1326.84 296.517C1320.82 296.803 1316.16 296.947 1312.86 296.947C1310 296.947 1308.56 296.23 1308.56 294.797C1308.56 293.65 1309.71 293.077 1312 293.077C1314.58 293.077 1317.16 292.79 1319.74 292.217C1322.9 291.643 1324.97 287.702 1325.98 280.392C1326.69 274.371 1327.05 259.106 1327.05 234.596ZM1453.23 265.341C1453.51 247.138 1453.87 221.552 1454.3 188.585C1454.87 155.618 1455.16 138.776 1455.16 138.059C1455.16 133.186 1456.09 130.749 1457.96 130.749C1458.39 130.749 1458.82 130.893 1459.25 131.179C1459.68 131.323 1460.18 131.609 1460.75 132.039C1461.32 132.469 1461.75 132.899 1462.04 133.329C1462.47 133.759 1463.12 134.404 1463.98 135.264C1464.84 136.124 1465.48 136.841 1465.91 137.414C1486.84 160.061 1509.05 183.067 1532.56 206.43C1536.72 210.587 1542.59 216.679 1550.19 224.706C1557.79 232.589 1564.53 239.684 1570.4 245.991C1576.42 252.154 1579.93 255.666 1580.94 256.526L1578.79 158.915C1578.64 152.465 1578 147.949 1576.85 145.369C1575.85 142.646 1574.06 140.711 1571.48 139.564C1569.33 138.704 1565.53 138.274 1560.08 138.274C1557.79 138.274 1556.64 137.629 1556.64 136.339C1556.64 135.049 1558.5 134.404 1562.23 134.404C1566.53 134.404 1571.69 134.548 1577.71 134.834C1583.73 134.978 1587.24 135.049 1588.25 135.049C1588.39 135.049 1590.9 134.978 1595.77 134.834C1600.65 134.548 1605.16 134.404 1609.32 134.404C1612.61 134.404 1614.26 135.049 1614.26 136.339C1614.26 137.629 1612.97 138.274 1610.39 138.274C1607.81 138.274 1605.66 138.489 1603.94 138.919C1600.93 139.779 1598.85 141.499 1597.71 144.079C1596.7 146.659 1596.13 151.031 1595.99 157.195C1595.7 172.245 1595.27 194.82 1594.7 224.921C1594.27 255.021 1593.91 277.668 1593.62 292.862C1593.62 297.305 1592.69 299.527 1590.83 299.527C1589.11 299.527 1586.67 297.95 1583.52 294.797C1578.36 289.923 1567.75 279.46 1551.7 263.406C1535.79 247.353 1525.25 236.746 1520.09 231.586C1514.64 226.282 1508.77 220.406 1502.46 213.955C1496.3 207.362 1491.07 201.772 1486.77 197.185C1482.61 192.455 1478.6 188.012 1474.73 183.855C1470.86 179.555 1468.71 177.19 1468.28 176.76L1470.64 267.706C1471.07 282.04 1473.58 289.995 1478.17 291.572C1481.03 292.575 1484.76 293.077 1489.35 293.077C1491.78 293.077 1493 293.65 1493 294.797C1493 296.23 1491.35 296.947 1488.06 296.947C1482.61 296.947 1476.95 296.803 1471.07 296.517C1465.19 296.373 1461.97 296.302 1461.4 296.302C1460.97 296.302 1459.6 296.302 1457.31 296.302C1455.02 296.445 1452.08 296.588 1448.49 296.732C1444.91 296.875 1441.47 296.947 1438.17 296.947C1435.02 296.947 1433.44 296.23 1433.44 294.797C1433.44 293.65 1434.59 293.077 1436.88 293.077C1440.75 293.077 1443.98 292.718 1446.56 292.002C1449.28 291.142 1451 288.92 1451.72 285.337C1452.58 281.753 1453.08 275.088 1453.23 265.341ZM1712.36 146.444V234.596C1712.36 259.106 1712.72 274.443 1713.44 280.607C1714.15 287.773 1716.95 291.643 1721.82 292.217C1725.83 292.79 1729.49 293.077 1732.79 293.077C1735.08 293.077 1736.23 293.65 1736.23 294.797C1736.23 296.23 1734.86 296.947 1732.14 296.947C1726.69 296.947 1720.03 296.803 1712.15 296.517C1704.26 296.373 1699.68 296.302 1698.39 296.302C1697.1 296.302 1693.01 296.373 1686.13 296.517C1679.39 296.803 1674.45 296.947 1671.3 296.947C1668.43 296.947 1667 296.23 1667 294.797C1667 293.65 1668.14 293.077 1670.44 293.077C1673.02 293.077 1675.6 292.79 1678.18 292.217C1681.62 291.5 1683.69 287.558 1684.41 280.392C1685.13 274.371 1685.49 259.106 1685.49 234.596V146.444C1685.34 146.444 1680.97 146.588 1672.37 146.874C1663.91 147.018 1657.61 147.161 1653.45 147.304C1647 147.591 1642.27 148.164 1639.26 149.024C1636.39 149.741 1634.17 151.246 1632.59 153.54C1630.73 156.406 1629.51 158.915 1628.94 161.065C1628.51 162.785 1627.72 163.645 1626.57 163.645C1625.28 163.645 1624.64 162.498 1624.64 160.205C1624.64 155.761 1626.14 147.519 1629.15 135.479C1629.73 132.756 1630.59 131.394 1631.73 131.394C1632.02 131.394 1633.1 131.824 1634.96 132.684C1636.97 133.401 1638.97 133.831 1640.98 133.974C1647.86 134.691 1655.03 135.049 1662.48 135.049H1747.62C1752.07 135.049 1757.01 134.691 1762.46 133.974C1766.04 133.258 1767.98 132.899 1768.26 132.899C1769.41 132.899 1769.98 134.404 1769.98 137.414C1769.98 138.848 1769.84 142.861 1769.55 149.454C1769.41 156.048 1769.34 160.348 1769.34 162.355C1769.05 164.648 1768.41 165.795 1767.4 165.795C1765.97 165.795 1765.18 164.361 1765.04 161.495C1765.04 161.351 1764.97 160.993 1764.82 160.42C1764.82 159.846 1764.82 159.416 1764.82 159.13C1764.25 151.533 1755.79 147.519 1739.45 147.089C1733.72 146.803 1724.69 146.588 1712.36 146.444ZM1823.11 196.755V226.856C1823.11 241.619 1824.48 253.014 1827.2 261.041C1830.07 268.925 1834.29 275.16 1839.88 279.747C1847.05 285.623 1856.01 288.562 1866.76 288.562C1878.8 288.562 1888.69 284.692 1896.43 276.951C1901.73 271.648 1905.1 264.911 1906.54 256.741C1908.11 248.428 1908.9 237.391 1908.9 223.631V196.755C1908.9 170.955 1908.76 155.761 1908.47 151.175C1908.18 147.304 1907.4 144.509 1906.11 142.789C1904.96 140.926 1902.67 139.636 1899.23 138.919C1897.51 138.489 1894.93 138.274 1891.49 138.274C1889.05 138.274 1887.83 137.629 1887.83 136.339C1887.83 135.049 1889.34 134.404 1892.35 134.404C1894.35 134.404 1896.57 134.476 1899.01 134.619C1901.45 134.619 1903.67 134.619 1905.68 134.619C1907.83 134.619 1909.76 134.691 1911.48 134.834C1913.2 134.834 1914.56 134.906 1915.57 135.049H1917.07C1917.5 135.049 1920.87 134.978 1927.18 134.834C1933.48 134.548 1938.28 134.404 1941.58 134.404C1944.59 134.404 1946.1 135.049 1946.1 136.339C1946.1 137.629 1944.81 138.274 1942.23 138.274C1940.65 138.274 1938.57 138.489 1935.99 138.919C1933.12 139.493 1931.12 140.711 1929.97 142.574C1928.97 144.438 1928.32 147.304 1928.04 151.175C1927.75 155.761 1927.61 170.955 1927.61 196.755V219.761C1927.61 234.381 1926.24 247.066 1923.52 257.816C1920.8 268.566 1915.35 277.453 1907.18 284.477C1895.14 294.797 1880.23 299.957 1862.46 299.957C1841.53 299.957 1825.62 295.012 1814.73 285.122C1801.97 273.655 1795.59 254.663 1795.59 228.146V196.755C1795.59 170.955 1795.45 155.761 1795.16 151.175C1794.88 147.304 1794.09 144.509 1792.8 142.789C1791.65 140.926 1789.36 139.636 1785.92 138.919C1784.2 138.489 1781.4 138.274 1777.53 138.274C1775.1 138.274 1773.88 137.629 1773.88 136.339C1773.88 135.049 1775.46 134.404 1778.61 134.404C1782.77 134.404 1788.57 134.548 1796.02 134.834C1803.62 134.978 1808.28 135.049 1810 135.049C1811.43 135.049 1815.52 134.978 1822.25 134.834C1828.99 134.548 1833.72 134.404 1836.44 134.404C1839.6 134.404 1841.17 135.049 1841.17 136.339C1841.17 137.629 1840.03 138.274 1837.73 138.274C1836.16 138.274 1834.08 138.489 1831.5 138.919C1828.63 139.493 1826.63 140.711 1825.48 142.574C1824.48 144.438 1823.83 147.304 1823.54 151.175C1823.26 155.761 1823.11 170.955 1823.11 196.755ZM2126.82 136.339L2146.39 269.211C2147.39 276.378 2148.61 281.61 2150.04 284.907C2151.47 288.06 2153.77 290.067 2156.92 290.927C2161.51 292.36 2165.95 293.077 2170.25 293.077C2172.54 293.077 2173.69 293.578 2173.69 294.582C2173.69 296.158 2171.83 296.947 2168.1 296.947C2150.47 296.947 2135.92 296.517 2124.46 295.657C2120.3 295.227 2118.22 294.438 2118.22 293.292C2118.22 292.432 2119.01 291.643 2120.59 290.927C2122.16 290.353 2122.52 287.272 2121.66 281.682L2108.55 185.79L2061.03 284.692C2058.45 289.995 2056.73 293.363 2055.87 294.797C2055.01 296.087 2054.08 296.732 2053.07 296.732C2051.93 296.732 2049.42 293.148 2045.55 285.982C2031.36 258.748 2023.12 242.479 2020.82 237.176C2020.25 235.886 2018.67 232.446 2016.09 226.856C2013.51 221.266 2010.22 214.314 2006.2 206C2002.33 197.687 1999.54 191.667 1997.82 187.94L1986.42 275.016C1985.99 278.886 1985.78 282.255 1985.78 285.122C1985.78 288.705 1987.93 290.998 1992.23 292.002C1995.38 292.718 1998.39 293.077 2001.26 293.077C2003.41 293.077 2004.48 293.578 2004.48 294.582C2004.48 296.158 2002.76 296.947 1999.32 296.947C1995.88 296.947 1991.44 296.803 1985.99 296.517C1980.69 296.373 1977.61 296.302 1976.75 296.302C1975.6 296.302 1972.38 296.373 1967.07 296.517C1961.91 296.803 1958.04 296.947 1955.46 296.947C1952.88 296.947 1951.59 296.158 1951.59 294.582C1951.59 293.578 1952.74 293.077 1955.03 293.077C1957.18 293.077 1959.33 292.862 1961.48 292.432C1965.78 291.428 1968.72 285.767 1970.3 275.446L1991.58 135.264C1992.3 131.538 1993.52 129.674 1995.24 129.674C1996.96 129.674 1998.89 131.896 2001.04 136.339L2059.74 257.601L2118.22 134.834C2119.94 131.394 2121.52 129.674 2122.95 129.674C2124.96 129.674 2126.25 131.896 2126.82 136.339ZM976.354 420.127H952.865C952.444 420.127 952.128 420.408 951.917 420.97L946.23 436.032C945.176 438.63 944.65 440.771 944.65 442.457C944.65 444.633 946.054 445.722 948.863 445.722H950.443C951.496 445.722 952.023 446.003 952.023 446.564C952.023 447.267 951.426 447.618 950.232 447.618C949.109 447.618 947.213 447.548 944.544 447.407C941.946 447.337 940.121 447.302 939.067 447.302L934.538 447.512C931.449 447.583 928.815 447.618 926.639 447.618C925.304 447.618 924.637 447.267 924.637 446.564C924.637 446.003 925.129 445.722 926.112 445.722C927.025 445.722 928.043 445.652 929.166 445.511C931.413 445.23 933.169 444.353 934.433 442.878C935.697 441.333 936.926 439.051 938.119 436.032L964.557 369.885C965.75 367.077 966.734 365.672 967.506 365.672C968.278 365.672 969.156 366.796 970.139 369.043C970.841 370.658 974.739 380.418 981.831 398.324C988.993 416.16 993.803 427.992 996.261 433.82C999.14 440.701 1002.23 444.528 1005.53 445.301C1006.93 445.581 1008.41 445.722 1009.95 445.722C1010.87 445.722 1011.32 446.003 1011.32 446.564C1011.32 447.267 1009.71 447.618 1006.48 447.618C998.332 447.618 991.451 447.548 985.833 447.407C984.218 447.337 983.411 447.056 983.411 446.564C983.411 446.003 983.902 445.687 984.885 445.617C985.306 445.476 985.622 445.195 985.833 444.774C986.044 444.282 986.044 443.756 985.833 443.194L977.407 420.864C977.196 420.373 976.845 420.127 976.354 420.127ZM954.972 414.861H974.352C974.844 414.861 975.019 414.65 974.879 414.229L965.399 388.213C965.048 387.019 964.662 387.019 964.241 388.213L954.551 414.123C954.41 414.615 954.551 414.861 954.972 414.861ZM1057.16 417.073V398.535C1057.16 385.895 1057.09 378.452 1056.95 376.205C1056.81 374.309 1056.42 372.94 1055.79 372.097C1055.23 371.184 1054.11 370.553 1052.42 370.201C1051.58 369.991 1050.21 369.885 1048.31 369.885C1047.12 369.885 1046.52 369.569 1046.52 368.937C1046.52 368.306 1047.3 367.99 1048.84 367.99C1050.95 367.99 1053.79 368.06 1057.37 368.2C1061.02 368.27 1063.23 368.306 1064.01 368.306C1064.85 368.306 1067.17 368.27 1070.96 368.2C1074.75 368.06 1077.84 367.99 1080.23 367.99C1084.79 367.99 1088.41 368.06 1091.08 368.2C1093.82 368.341 1097.33 368.762 1101.61 369.464C1105.89 370.096 1109.75 371.325 1113.2 373.151C1116.64 374.906 1119.73 377.188 1122.46 379.997C1129.28 387.089 1132.68 396.007 1132.68 406.75C1132.68 418.547 1128.85 428.343 1121.2 436.137C1117.97 439.437 1113.44 442.351 1107.61 444.879C1101.86 447.337 1094.62 448.566 1085.92 448.566C1083.18 448.566 1079.14 448.355 1073.8 447.934C1068.47 447.512 1065.03 447.302 1063.48 447.302C1061.16 447.302 1059.16 447.337 1057.48 447.407C1056.63 447.407 1055.37 447.442 1053.69 447.512C1052.07 447.583 1050.91 447.618 1050.21 447.618C1048.8 447.618 1048.1 447.267 1048.1 446.564C1048.1 446.003 1048.66 445.722 1049.79 445.722C1051.05 445.722 1052.32 445.581 1053.58 445.301C1055.12 445.02 1056.14 443.089 1056.63 439.507C1056.99 436.558 1057.16 429.08 1057.16 417.073ZM1070.33 396.849V410.121C1070.33 421.637 1070.4 428.729 1070.54 431.397C1070.75 435.891 1071.13 438.56 1071.7 439.402C1073.59 442.211 1078.19 443.615 1085.49 443.615C1095.82 443.615 1103.89 441.087 1109.72 436.032C1115.62 430.976 1118.57 422.234 1118.57 409.805C1118.57 398.71 1115.2 389.933 1108.46 383.473C1101.08 376.451 1091.11 372.94 1078.54 372.94C1074.96 372.94 1072.68 373.186 1071.7 373.677C1070.85 374.028 1070.43 374.731 1070.43 375.784C1070.36 378.171 1070.33 385.193 1070.33 396.849ZM1207.31 442.667L1180.77 378.312C1179.65 375.573 1178.52 373.712 1177.4 372.729C1176.34 371.676 1174.8 370.869 1172.76 370.307C1171.71 370.026 1170.34 369.885 1168.66 369.885C1167.81 369.885 1167.39 369.569 1167.39 368.937C1167.39 368.306 1168.3 367.99 1170.13 367.99C1172.17 367.99 1174.94 368.06 1178.45 368.2C1182.03 368.27 1184.35 368.306 1185.4 368.306C1186.04 368.306 1187.86 368.27 1190.88 368.2C1193.9 368.06 1196.39 367.99 1198.36 367.99C1199.97 367.99 1200.78 368.306 1200.78 368.937C1200.78 369.569 1200.25 369.885 1199.2 369.885C1197.09 369.885 1195.73 370.131 1195.09 370.623C1194.39 371.114 1194.04 371.852 1194.04 372.835C1194.04 374.099 1194.85 376.802 1196.46 380.945C1201.94 395.199 1208.05 411.315 1214.79 429.291C1215.91 426.412 1218.09 420.864 1221.32 412.649C1224.62 404.433 1227.67 396.849 1230.48 389.898C1233.29 382.876 1235.05 378.347 1235.75 376.31C1236.38 374.695 1236.7 373.396 1236.7 372.413C1236.7 371.36 1236.24 370.693 1235.33 370.412C1234.28 370.061 1232.87 369.885 1231.12 369.885C1229.92 369.885 1229.32 369.605 1229.32 369.043C1229.32 368.341 1230.31 367.99 1232.27 367.99C1234.38 367.99 1236.7 368.06 1239.23 368.2C1241.82 368.27 1243.19 368.306 1243.33 368.306C1243.83 368.306 1245.3 368.27 1247.76 368.2C1250.22 368.06 1252.04 367.99 1253.23 367.99C1254.71 367.99 1255.45 368.306 1255.45 368.937C1255.45 369.569 1254.88 369.885 1253.76 369.885C1251.58 369.885 1249.86 370.307 1248.6 371.149C1246.91 372.343 1244.98 375.503 1242.81 380.629C1241.26 384.351 1239.09 389.266 1236.28 395.375C1233.54 401.484 1231.5 406.083 1230.17 409.173C1227.64 414.931 1224.8 421.391 1221.64 428.553C1218.55 435.716 1216.72 439.964 1216.16 441.298C1216.02 441.579 1215.81 442 1215.53 442.562C1213.84 446.424 1212.68 448.531 1212.05 448.882C1211.84 449.022 1211.59 449.092 1211.31 449.092C1210.68 449.092 1210.12 448.671 1209.63 447.828C1209.14 447.056 1208.36 445.336 1207.31 442.667ZM1301.44 417.073V398.535C1301.44 385.895 1301.37 378.452 1301.23 376.205C1301.01 372.764 1299.82 370.798 1297.64 370.307C1296.59 370.026 1295.33 369.885 1293.85 369.885C1292.73 369.885 1292.17 369.534 1292.17 368.832C1292.17 368.27 1293.01 367.99 1294.7 367.99C1296.1 367.99 1298.49 368.06 1301.86 368.2C1305.3 368.27 1307.48 368.306 1308.39 368.306C1309.16 368.306 1311.13 368.27 1314.29 368.2C1317.45 368.06 1319.76 367.99 1321.24 367.99C1322.71 367.99 1323.45 368.27 1323.45 368.832C1323.45 369.534 1322.89 369.885 1321.76 369.885C1320.92 369.885 1319.87 369.991 1318.6 370.201C1317.2 370.482 1316.22 371.079 1315.66 371.992C1315.16 372.905 1314.85 374.309 1314.71 376.205C1314.57 378.452 1314.5 385.895 1314.5 398.535V417.073C1314.5 429.431 1314.64 437.12 1314.92 440.139C1315.13 441.754 1315.52 442.983 1316.08 443.826C1316.64 444.598 1317.66 445.09 1319.13 445.301C1321.1 445.581 1322.89 445.722 1324.5 445.722C1325.63 445.722 1326.19 446.003 1326.19 446.564C1326.19 447.267 1325.52 447.618 1324.19 447.618C1321.52 447.618 1318.25 447.548 1314.39 447.407C1310.6 447.337 1308.39 447.302 1307.76 447.302C1307.12 447.302 1305.12 447.337 1301.75 447.407C1298.45 447.548 1296.03 447.618 1294.48 447.618C1293.08 447.618 1292.38 447.267 1292.38 446.564C1292.38 446.003 1292.94 445.722 1294.06 445.722C1295.33 445.722 1296.59 445.581 1297.86 445.301C1299.54 444.949 1300.56 443.194 1300.91 440.034C1301.26 437.085 1301.44 429.431 1301.44 417.073ZM1391.3 449.092C1385.19 449.092 1380.06 448.179 1375.92 446.354C1375.08 446.003 1374.51 445.617 1374.23 445.195C1374.02 444.704 1373.92 443.896 1373.92 442.773C1373.92 439.191 1374.09 434.592 1374.44 428.975C1374.58 427.149 1375.01 426.236 1375.71 426.236C1376.41 426.236 1376.76 426.833 1376.76 428.027C1376.76 429.431 1377.08 431.222 1377.71 433.398C1379.82 440.491 1384.84 444.037 1392.77 444.037C1397.2 444.037 1400.64 442.808 1403.09 440.35C1405.62 437.892 1406.89 435.119 1406.89 432.029C1406.89 429.15 1406.18 426.412 1404.78 423.814C1403.37 421.215 1400.64 418.336 1396.56 415.177L1391.72 411.385C1386.1 406.961 1382.1 402.818 1379.71 398.956C1377.32 395.024 1376.13 390.846 1376.13 386.422C1376.13 380.594 1378.38 375.819 1382.87 372.097C1387.36 368.376 1393.23 366.515 1400.46 366.515C1403.55 366.515 1406.78 366.796 1410.15 367.358C1411.77 367.638 1413.21 367.954 1414.47 368.306C1415.45 368.516 1415.94 368.937 1415.94 369.569C1415.94 369.85 1415.91 370.482 1415.84 371.465C1415.77 372.448 1415.7 373.888 1415.63 375.784C1415.56 377.68 1415.52 379.821 1415.52 382.209C1415.52 384.315 1415.14 385.369 1414.36 385.369C1413.66 385.369 1413.31 384.737 1413.31 383.473C1413.31 381.085 1412.4 378.768 1410.57 376.521C1407.83 373.08 1404.01 371.36 1399.09 371.36C1395.23 371.36 1392.17 372.378 1389.93 374.415C1387.68 376.381 1386.56 378.979 1386.56 382.209C1386.56 384.667 1387.33 387.019 1388.87 389.266C1390.49 391.443 1393.44 394.146 1397.72 397.376L1400.67 399.588C1406.99 404.363 1411.45 408.787 1414.05 412.859C1416.65 416.862 1417.95 421.391 1417.95 426.447C1417.95 434.381 1414.64 440.491 1408.04 444.774C1403.55 447.653 1397.97 449.092 1391.3 449.092ZM1507.66 449.092C1500.43 449.092 1493.97 447.828 1488.28 445.301C1482.66 442.773 1478.24 439.472 1475.01 435.4C1471.78 431.257 1469.32 426.868 1467.63 422.234C1466.02 417.529 1465.21 412.719 1465.21 407.804C1465.21 404.082 1465.7 400.36 1466.69 396.639C1467.67 392.847 1469.25 389.125 1471.43 385.474C1473.67 381.823 1476.41 378.628 1479.64 375.889C1482.94 373.08 1487.09 370.833 1492.07 369.148C1497.06 367.393 1502.6 366.515 1508.71 366.515C1521.77 366.515 1532.13 370.061 1539.78 377.153C1547.44 384.245 1551.27 393.83 1551.27 405.908C1551.27 418.266 1547.26 428.553 1539.26 436.769C1531.32 444.985 1520.79 449.092 1507.66 449.092ZM1512.08 443.826C1513.91 443.826 1515.7 443.65 1517.45 443.299C1519.28 442.878 1521.39 441.965 1523.77 440.561C1526.23 439.156 1528.34 437.296 1530.09 434.978C1531.85 432.661 1533.36 429.326 1534.62 424.972C1535.89 420.619 1536.52 415.563 1536.52 409.805C1536.52 398.289 1533.57 389.055 1527.67 382.104C1521.84 375.082 1514.51 371.571 1505.66 371.571C1502.36 371.571 1499.27 372.097 1496.39 373.151C1493.58 374.134 1490.84 375.819 1488.17 378.206C1485.58 380.524 1483.5 383.929 1481.96 388.423C1480.48 392.917 1479.75 398.289 1479.75 404.538C1479.75 415.844 1482.66 425.218 1488.49 432.661C1494.39 440.104 1502.25 443.826 1512.08 443.826ZM1609.06 417.073V398.535C1609.06 385.895 1608.99 378.452 1608.85 376.205C1608.71 374.309 1608.33 372.94 1607.7 372.097C1607.13 371.184 1606.01 370.553 1604.33 370.201C1603.48 369.991 1602.11 369.885 1600.22 369.885C1599.02 369.885 1598.43 369.569 1598.43 368.937C1598.43 368.306 1599.2 367.99 1600.74 367.99C1602.92 367.99 1605.76 368.06 1609.28 368.2C1612.79 368.27 1614.75 368.306 1615.17 368.306C1616.37 368.306 1618.86 368.27 1622.65 368.2C1626.51 368.06 1628.97 367.99 1630.03 367.99C1638.52 367.99 1644.98 369.499 1649.41 372.519C1651.16 373.712 1652.78 375.608 1654.25 378.206C1655.8 380.804 1656.57 383.719 1656.57 386.949C1656.57 391.092 1655.51 395.024 1653.41 398.745C1651.37 402.397 1647.83 406.294 1642.77 410.437C1654.92 425.745 1662.54 435.013 1665.63 438.244C1669.49 442.246 1673.39 444.633 1677.32 445.406C1678.51 445.617 1679.49 445.722 1680.27 445.722C1681.11 445.722 1681.53 446.003 1681.53 446.564C1681.53 447.267 1680.86 447.618 1679.53 447.618H1669.21C1664.15 447.618 1660.39 446.951 1657.94 445.617C1655.83 444.493 1653.72 442.773 1651.62 440.455C1649.51 438.068 1646.81 434.627 1643.51 430.133C1642.38 428.588 1640.98 426.657 1639.29 424.34C1637.68 422.023 1636.34 420.127 1635.29 418.652C1634.24 417.108 1633.5 416.089 1633.08 415.598C1632.66 415.106 1632.03 414.861 1631.18 414.861L1622.34 414.65C1621.77 414.65 1621.49 414.931 1621.49 415.493V416.967C1621.49 429.045 1621.67 436.558 1622.02 439.507C1622.23 441.263 1622.58 442.632 1623.07 443.615C1623.64 444.528 1624.65 445.09 1626.13 445.301C1628.23 445.581 1629.95 445.722 1631.29 445.722C1632.13 445.722 1632.55 446.003 1632.55 446.564C1632.55 447.267 1631.85 447.618 1630.45 447.618C1628.06 447.618 1624.9 447.548 1620.97 447.407C1617.1 447.337 1615.1 447.302 1614.96 447.302C1614.47 447.302 1612.61 447.337 1609.38 447.407C1606.15 447.548 1603.73 447.618 1602.11 447.618C1600.71 447.618 1600.01 447.267 1600.01 446.564C1600.01 446.003 1600.57 445.722 1601.69 445.722C1602.96 445.722 1604.22 445.581 1605.48 445.301C1607.03 445.02 1608.05 443.089 1608.54 439.507C1608.89 436.558 1609.06 429.08 1609.06 417.073ZM1621.49 374.836V406.856C1621.49 407.839 1621.81 408.471 1622.44 408.752C1624.55 409.454 1627.22 409.805 1630.45 409.805C1633.75 409.805 1636.24 409.208 1637.92 408.014C1642.07 404.995 1644.14 399.728 1644.14 392.215C1644.14 385.544 1642.42 380.664 1638.98 377.574C1635.61 374.485 1631.96 372.94 1628.02 372.94C1625.22 372.94 1623.35 373.08 1622.44 373.361C1621.81 373.572 1621.49 374.063 1621.49 374.836ZM1735.13 428.975V420.338C1735.13 416.546 1734.32 412.859 1732.71 409.278C1732.36 408.436 1729.62 403.836 1724.49 395.48C1719.44 387.124 1716 381.612 1714.17 378.944C1711.57 375.152 1709.15 372.589 1706.9 371.255C1705.22 370.342 1703.74 369.885 1702.48 369.885C1701.43 369.885 1700.9 369.569 1700.9 368.937C1700.9 368.306 1701.57 367.99 1702.9 367.99C1703.39 367.99 1705.39 368.06 1708.9 368.2C1712.48 368.27 1714.91 368.306 1716.17 368.306C1716.73 368.306 1718.31 368.27 1720.91 368.2C1723.51 368.06 1725.69 367.99 1727.44 367.99C1728.49 367.99 1729.02 368.306 1729.02 368.937C1729.02 369.289 1728.25 369.675 1726.7 370.096C1725.72 370.307 1725.23 370.939 1725.23 371.992C1725.23 372.694 1725.65 373.888 1726.49 375.573C1726.77 376.135 1732.74 386.633 1744.4 407.066C1744.75 406.224 1747.35 401.449 1752.19 392.742C1757.04 384.035 1759.71 379.154 1760.2 378.101C1761.18 375.924 1761.67 374.099 1761.67 372.624C1761.67 371.22 1760.94 370.342 1759.46 369.991C1758.2 369.71 1757.57 369.359 1757.57 368.937C1757.57 368.306 1758.16 367.99 1759.36 367.99C1760.55 367.99 1762.23 368.06 1764.41 368.2C1766.66 368.27 1768.27 368.306 1769.26 368.306C1770.03 368.306 1771.93 368.27 1774.94 368.2C1778.03 368.06 1779.89 367.99 1780.53 367.99C1781.79 367.99 1782.42 368.27 1782.42 368.832C1782.42 369.534 1781.76 369.885 1780.42 369.885C1778.88 369.885 1777.33 370.307 1775.79 371.149C1774.17 371.922 1772.28 373.642 1770.1 376.31C1768.41 378.347 1764.87 383.859 1759.46 392.847C1754.12 401.835 1750.96 407.488 1749.98 409.805C1748.93 412.333 1748.4 415.844 1748.4 420.338V428.975C1748.4 433.047 1748.51 436.558 1748.72 439.507C1748.93 443.018 1750.37 444.949 1753.04 445.301C1755 445.581 1756.76 445.722 1758.3 445.722C1759.43 445.722 1759.99 446.003 1759.99 446.564C1759.99 447.267 1759.25 447.618 1757.78 447.618C1755.25 447.618 1752.09 447.548 1748.3 447.407C1744.5 447.337 1742.29 447.302 1741.66 447.302C1740.89 447.302 1738.85 447.337 1735.55 447.407C1732.25 447.548 1729.9 447.618 1728.49 447.618C1726.95 447.618 1726.18 447.267 1726.18 446.564C1726.18 446.003 1726.74 445.722 1727.86 445.722C1729.06 445.722 1730.29 445.581 1731.55 445.301C1733.52 444.879 1734.6 442.948 1734.81 439.507C1735.03 436.558 1735.13 433.047 1735.13 428.975Z" fill="white"/>
<defs>
<filter id="filter0_d_25_61" x="79.5566" y="0" width="362.443" height="541.603" filterUnits="userSpaceOnUse" color-interpolation-filters="sRGB">
<feFlood flood-opacity="0" result="BackgroundImageFix"/>
<feColorMatrix in="SourceAlpha" type="matrix" values="0 0 0 0 0 0 0 0 0 0 0 0 0 0 0 0 0 0 127 0" result="hardAlpha"/>
<feOffset dy="-4"/>
<feGaussianBlur stdDeviation="5"/>
<feComposite in2="hardAlpha" operator="out"/>
<feColorMatrix type="matrix" values="0 0 0 0 0 0 0 0 0 0 0 0 0 0 0 0 0 0 0.1 0"/>
<feBlend mode="normal" in2="BackgroundImageFix" result="effect1_dropShadow_25_61"/>
<feBlend mode="normal" in="SourceGraphic" in2="effect1_dropShadow_25_61" result="shape"/>
</filter>
</defs>
</svg>
