<svg width="2174" height="522" viewBox="0 0 2174 522" fill="none" xmlns="http://www.w3.org/2000/svg">
<path d="M100.163 216.957L200.326 521.603H0L100.163 216.957Z" fill="#01ACA8"/>
<path d="M260.778 0L432 521.603H89.5566L260.778 0Z" fill="#0E285C"/>
<path d="M643.073 217.238H586.836C585.827 217.238 585.071 217.911 584.567 219.256L570.949 255.318C568.427 261.539 567.166 266.666 567.166 270.701C567.166 275.913 570.528 278.519 577.253 278.519H581.036C583.558 278.519 584.819 279.191 584.819 280.536C584.819 282.218 583.39 283.058 580.532 283.058C577.842 283.058 573.302 282.89 566.914 282.554C560.693 282.386 556.322 282.302 553.8 282.302L542.956 282.806C535.559 282.974 529.254 283.058 524.042 283.058C520.848 283.058 519.251 282.218 519.251 280.536C519.251 279.191 520.428 278.519 522.781 278.519C524.967 278.519 527.405 278.351 530.095 278.015C535.475 277.342 539.678 275.241 542.704 271.71C545.73 268.011 548.672 262.547 551.53 255.318L614.829 96.9466C617.687 90.2217 620.04 86.8593 621.89 86.8593C623.739 86.8593 625.841 89.5492 628.194 94.9291C629.876 98.796 639.206 122.165 656.187 165.036C673.335 207.739 684.852 236.068 690.736 250.022C697.629 266.498 705.026 275.661 712.928 277.51C716.291 278.183 719.821 278.519 723.52 278.519C725.705 278.519 726.798 279.191 726.798 280.536C726.798 282.218 722.931 283.058 715.198 283.058C695.696 283.058 679.22 282.89 665.77 282.554C661.903 282.386 659.97 281.713 659.97 280.536C659.97 279.191 661.146 278.435 663.5 278.267C664.509 277.931 665.265 277.258 665.77 276.249C666.274 275.072 666.274 273.812 665.77 272.467L645.595 219.004C645.091 217.827 644.25 217.238 643.073 217.238ZM591.88 204.629H638.282C639.459 204.629 639.879 204.125 639.543 203.116L616.846 140.827C616.005 137.969 615.081 137.969 614.072 140.827L590.871 202.864C590.535 204.041 590.871 204.629 591.88 204.629ZM760.461 182.755V212.856C760.461 227.619 761.822 239.014 764.546 247.041C767.413 254.925 771.641 261.16 777.231 265.747C784.398 271.623 793.356 274.562 804.106 274.562C816.147 274.562 826.037 270.692 833.777 262.951C839.08 257.648 842.449 250.911 843.882 242.741C845.459 234.428 846.247 223.391 846.247 209.631V182.755C846.247 156.955 846.104 141.761 845.817 137.175C845.53 133.304 844.742 130.509 843.452 128.789C842.305 126.926 840.012 125.636 836.572 124.919C834.852 124.489 832.272 124.274 828.832 124.274C826.395 124.274 825.177 123.629 825.177 122.339C825.177 121.049 826.682 120.404 829.692 120.404C831.699 120.404 833.92 120.476 836.357 120.619C838.794 120.619 841.015 120.619 843.022 120.619C845.172 120.619 847.107 120.691 848.827 120.834C850.547 120.834 851.909 120.906 852.912 121.049H854.417C854.847 121.049 858.216 120.978 864.522 120.834C870.829 120.548 875.631 120.404 878.928 120.404C881.938 120.404 883.443 121.049 883.443 122.339C883.443 123.629 882.153 124.274 879.573 124.274C877.996 124.274 875.918 124.489 873.338 124.919C870.471 125.493 868.464 126.711 867.317 128.574C866.314 130.438 865.669 133.304 865.382 137.175C865.096 141.761 864.952 156.955 864.952 182.755V205.761C864.952 220.381 863.591 233.066 860.867 243.816C858.144 254.566 852.697 263.453 844.527 270.477C832.487 280.797 817.58 285.957 799.806 285.957C778.879 285.957 762.969 281.012 752.076 271.122C739.319 259.655 732.94 240.663 732.94 214.146V182.755C732.94 156.955 732.797 141.761 732.51 137.175C732.224 133.304 731.435 130.509 730.145 128.789C728.999 126.926 726.705 125.636 723.265 124.919C721.545 124.489 718.75 124.274 714.88 124.274C712.443 124.274 711.225 123.629 711.225 122.339C711.225 121.049 712.802 120.404 715.955 120.404C720.112 120.404 725.917 120.548 733.37 120.834C740.967 120.978 745.626 121.049 747.346 121.049C748.779 121.049 752.864 120.978 759.601 120.834C766.338 120.548 771.068 120.404 773.791 120.404C776.944 120.404 778.521 121.049 778.521 122.339C778.521 123.629 777.374 124.274 775.081 124.274C773.504 124.274 771.426 124.489 768.846 124.919C765.979 125.493 763.973 126.711 762.826 128.574C761.822 130.438 761.177 133.304 760.891 137.175C760.604 141.761 760.461 156.955 760.461 182.755ZM1051.48 244.891V268.542C1051.48 271.408 1051.34 273.272 1051.05 274.132C1050.76 274.848 1049.98 275.565 1048.69 276.282C1036.36 282.732 1019.09 285.957 996.87 285.957C983.254 285.957 970.64 284.308 959.03 281.012C947.42 277.715 936.956 272.77 927.639 266.177C918.323 259.583 910.941 250.768 905.494 239.731C900.191 228.694 897.539 216.009 897.539 201.676C897.539 185.479 901.051 171.36 908.074 159.32C915.241 147.136 924.199 137.82 934.949 131.369C944.266 125.779 953.44 122.053 962.47 120.189C971.643 118.326 981.749 117.394 992.785 117.394C1006.69 117.394 1019.37 118.541 1030.84 120.834C1038.15 122.268 1043.81 123.056 1047.83 123.199C1049.83 123.343 1050.84 124.203 1050.84 125.779C1050.84 125.923 1050.69 127.141 1050.41 129.434C1050.12 131.728 1049.83 135.598 1049.55 141.045C1049.4 146.491 1049.33 153.156 1049.33 161.04C1049.33 164.05 1048.54 165.555 1046.97 165.555C1045.82 165.555 1045.1 164.623 1044.82 162.76C1043.81 155.02 1041.38 149.071 1037.51 144.915C1033.49 140.758 1027.26 136.96 1018.8 133.519C1010.34 129.936 1000.6 128.144 989.56 128.144C971.93 128.144 957.74 132.588 946.99 141.475C933.803 152.511 927.209 170.07 927.209 194.15C927.209 217.657 934.089 237.008 947.85 252.201C961.61 267.395 979.67 274.992 1002.03 274.992C1010.77 274.992 1016.87 274.203 1020.31 272.627C1023.03 271.337 1024.39 268.685 1024.39 264.671V244.461C1024.39 231.848 1024.32 223.391 1024.18 219.091C1024.03 215.364 1023.32 212.569 1022.03 210.706C1020.74 208.842 1018.37 207.552 1014.93 206.836C1013.21 206.406 1010.42 206.191 1006.55 206.191C1004.4 206.191 1003.32 205.617 1003.32 204.471C1003.32 203.037 1004.83 202.321 1007.84 202.321C1011.99 202.321 1017.8 202.464 1025.25 202.751C1032.7 202.894 1037.29 202.966 1039.01 202.966C1041.16 202.966 1045.25 202.894 1051.27 202.751C1057.43 202.464 1061.73 202.321 1064.17 202.321C1067.03 202.321 1068.47 203.037 1068.47 204.471C1068.47 205.617 1067.53 206.191 1065.67 206.191C1064.38 206.191 1062.45 206.406 1059.87 206.836C1054.56 207.839 1051.84 211.924 1051.7 219.091C1051.55 223.391 1051.48 231.991 1051.48 244.891ZM1250.3 122.339L1269.87 255.211C1270.87 262.378 1272.09 267.61 1273.52 270.907C1274.96 274.06 1277.25 276.067 1280.4 276.927C1284.99 278.36 1289.43 279.077 1293.73 279.077C1296.03 279.077 1297.17 279.578 1297.17 280.582C1297.17 282.158 1295.31 282.947 1291.58 282.947C1273.95 282.947 1259.41 282.517 1247.94 281.657C1243.78 281.227 1241.7 280.438 1241.7 279.292C1241.7 278.432 1242.49 277.643 1244.07 276.927C1245.65 276.353 1246 273.272 1245.14 267.682L1232.03 171.79L1184.51 270.692C1181.93 275.995 1180.21 279.363 1179.35 280.797C1178.49 282.087 1177.56 282.732 1176.56 282.732C1175.41 282.732 1172.9 279.148 1169.03 271.982C1154.84 244.748 1146.6 228.479 1144.31 223.176C1143.73 221.886 1142.16 218.446 1139.58 212.856C1137 207.266 1133.7 200.314 1129.69 192C1125.82 183.687 1123.02 177.667 1121.3 173.94L1109.91 261.016C1109.48 264.886 1109.26 268.255 1109.26 271.122C1109.26 274.705 1111.41 276.998 1115.71 278.002C1118.87 278.718 1121.88 279.077 1124.74 279.077C1126.89 279.077 1127.97 279.578 1127.97 280.582C1127.97 282.158 1126.25 282.947 1122.81 282.947C1119.37 282.947 1114.92 282.803 1109.48 282.517C1104.17 282.373 1101.09 282.302 1100.23 282.302C1099.08 282.302 1095.86 282.373 1090.56 282.517C1085.4 282.803 1081.53 282.947 1078.95 282.947C1076.37 282.947 1075.08 282.158 1075.08 280.582C1075.08 279.578 1076.22 279.077 1078.52 279.077C1080.67 279.077 1082.82 278.862 1084.97 278.432C1089.27 277.428 1092.2 271.767 1093.78 261.446L1115.07 121.264C1115.78 117.538 1117 115.674 1118.72 115.674C1120.44 115.674 1122.38 117.896 1124.53 122.339L1183.22 243.601L1241.7 120.834C1243.42 117.394 1245 115.674 1246.43 115.674C1248.44 115.674 1249.73 117.896 1250.3 122.339ZM1327.05 220.596V182.755C1327.05 156.955 1326.91 141.761 1326.62 137.175C1326.34 133.304 1325.55 130.509 1324.26 128.789C1323.11 126.926 1320.82 125.636 1317.38 124.919C1315.66 124.489 1312.86 124.274 1308.99 124.274C1306.56 124.274 1305.34 123.629 1305.34 122.339C1305.34 121.049 1306.91 120.404 1310.07 120.404C1313.22 120.404 1318.17 120.548 1324.9 120.834C1331.78 120.978 1337.16 121.049 1341.03 121.049C1374.14 121.049 1392.06 120.978 1394.78 120.834C1399.51 120.404 1402.59 119.974 1404.02 119.544C1404.17 119.544 1404.67 119.401 1405.53 119.114C1406.39 118.828 1407.03 118.684 1407.46 118.684C1408.32 118.684 1408.75 119.329 1408.75 120.619C1408.75 120.906 1408.61 121.551 1408.32 122.554C1408.18 123.414 1407.97 124.919 1407.68 127.069C1407.39 129.219 1407.18 131.728 1407.03 134.594C1407.03 134.881 1406.89 137.103 1406.6 141.26C1406.32 145.273 1406.1 147.781 1405.96 148.785C1405.67 150.361 1404.96 151.15 1403.81 151.15C1402.52 151.15 1401.87 149.86 1401.87 147.28C1401.87 144.7 1401.44 142.406 1400.58 140.4C1399.72 138.25 1398.36 136.601 1396.5 135.454C1394.64 134.164 1391.2 133.233 1386.18 132.659C1381.31 132.086 1371.13 131.799 1355.65 131.799C1354.65 131.799 1354.14 132.516 1354.14 133.949V188.345C1354.14 189.922 1354.65 190.71 1355.65 190.71C1375.29 190.71 1386.75 190.567 1390.05 190.28C1395.35 189.85 1398.79 188.775 1400.37 187.055C1401.95 185.192 1403.09 184.26 1403.81 184.26C1404.81 184.26 1405.31 184.834 1405.31 185.98C1405.31 186.267 1405.24 186.984 1405.1 188.13C1404.96 189.134 1404.74 190.854 1404.45 193.29C1404.17 195.727 1403.88 198.522 1403.59 201.676C1403.59 202.822 1403.52 204.542 1403.38 206.836C1403.24 209.129 1403.09 211.136 1402.95 212.856C1402.81 214.576 1402.73 215.651 1402.73 216.081C1402.73 218.804 1402.09 220.166 1400.8 220.166C1399.51 220.166 1398.86 219.019 1398.86 216.726C1398.58 213.716 1398.29 211.637 1398 210.491C1396.86 205.617 1392.84 202.822 1385.96 202.106C1381.95 201.676 1371.77 201.461 1355.43 201.461C1354.57 201.461 1354.14 202.177 1354.14 203.611V220.596V253.921C1354.43 261.518 1356.08 266.463 1359.09 268.757C1362.24 270.907 1369.19 271.982 1379.94 271.982C1389.69 271.982 1396.43 271.122 1400.15 269.402C1405.17 267.108 1408.4 261.805 1409.83 253.491C1410.26 251.341 1411.05 250.266 1412.19 250.266C1413.34 250.266 1413.91 251.556 1413.91 254.136C1413.91 262.593 1412.98 270.548 1411.12 278.002C1410.4 280.582 1409.4 282.158 1408.11 282.732C1406.82 283.305 1403.95 283.592 1399.51 283.592C1393.35 283.592 1383.67 283.377 1370.48 282.947C1357.44 282.517 1347.26 282.302 1339.95 282.302C1337.23 282.302 1332.86 282.373 1326.84 282.517C1320.82 282.803 1316.16 282.947 1312.86 282.947C1310 282.947 1308.56 282.23 1308.56 280.797C1308.56 279.65 1309.71 279.077 1312 279.077C1314.58 279.077 1317.16 278.79 1319.74 278.217C1322.9 277.643 1324.97 273.702 1325.98 266.392C1326.69 260.371 1327.05 245.106 1327.05 220.596ZM1453.23 251.341C1453.51 233.138 1453.87 207.552 1454.3 174.585C1454.87 141.618 1455.16 124.776 1455.16 124.059C1455.16 119.186 1456.09 116.749 1457.96 116.749C1458.39 116.749 1458.82 116.893 1459.25 117.179C1459.68 117.323 1460.18 117.609 1460.75 118.039C1461.32 118.469 1461.75 118.899 1462.04 119.329C1462.47 119.759 1463.12 120.404 1463.98 121.264C1464.84 122.124 1465.48 122.841 1465.91 123.414C1486.84 146.061 1509.05 169.067 1532.56 192.43C1536.72 196.587 1542.59 202.679 1550.19 210.706C1557.79 218.589 1564.53 225.684 1570.4 231.991C1576.42 238.154 1579.93 241.666 1580.94 242.526L1578.79 144.915C1578.64 138.465 1578 133.949 1576.85 131.369C1575.85 128.646 1574.06 126.711 1571.48 125.564C1569.33 124.704 1565.53 124.274 1560.08 124.274C1557.79 124.274 1556.64 123.629 1556.64 122.339C1556.64 121.049 1558.5 120.404 1562.23 120.404C1566.53 120.404 1571.69 120.548 1577.71 120.834C1583.73 120.978 1587.24 121.049 1588.25 121.049C1588.39 121.049 1590.9 120.978 1595.77 120.834C1600.65 120.548 1605.16 120.404 1609.32 120.404C1612.61 120.404 1614.26 121.049 1614.26 122.339C1614.26 123.629 1612.97 124.274 1610.39 124.274C1607.81 124.274 1605.66 124.489 1603.94 124.919C1600.93 125.779 1598.85 127.499 1597.71 130.079C1596.7 132.659 1596.13 137.031 1595.99 143.195C1595.7 158.245 1595.27 180.82 1594.7 210.921C1594.27 241.021 1593.91 263.668 1593.62 278.862C1593.62 283.305 1592.69 285.527 1590.83 285.527C1589.11 285.527 1586.67 283.95 1583.52 280.797C1578.36 275.923 1567.75 265.46 1551.7 249.406C1535.79 233.353 1525.25 222.746 1520.09 217.586C1514.64 212.282 1508.77 206.406 1502.46 199.955C1496.3 193.362 1491.07 187.772 1486.77 183.185C1482.61 178.455 1478.6 174.012 1474.73 169.855C1470.86 165.555 1468.71 163.19 1468.28 162.76L1470.64 253.706C1471.07 268.04 1473.58 275.995 1478.17 277.572C1481.03 278.575 1484.76 279.077 1489.35 279.077C1491.78 279.077 1493 279.65 1493 280.797C1493 282.23 1491.35 282.947 1488.06 282.947C1482.61 282.947 1476.95 282.803 1471.07 282.517C1465.19 282.373 1461.97 282.302 1461.4 282.302C1460.97 282.302 1459.6 282.302 1457.31 282.302C1455.02 282.445 1452.08 282.588 1448.49 282.732C1444.91 282.875 1441.47 282.947 1438.17 282.947C1435.02 282.947 1433.44 282.23 1433.44 280.797C1433.44 279.65 1434.59 279.077 1436.88 279.077C1440.75 279.077 1443.98 278.718 1446.56 278.002C1449.28 277.142 1451 274.92 1451.72 271.337C1452.58 267.753 1453.08 261.088 1453.23 251.341ZM1712.36 132.444V220.596C1712.36 245.106 1712.72 260.443 1713.44 266.607C1714.15 273.773 1716.95 277.643 1721.82 278.217C1725.83 278.79 1729.49 279.077 1732.79 279.077C1735.08 279.077 1736.23 279.65 1736.23 280.797C1736.23 282.23 1734.86 282.947 1732.14 282.947C1726.69 282.947 1720.03 282.803 1712.15 282.517C1704.26 282.373 1699.68 282.302 1698.39 282.302C1697.1 282.302 1693.01 282.373 1686.13 282.517C1679.39 282.803 1674.45 282.947 1671.3 282.947C1668.43 282.947 1667 282.23 1667 280.797C1667 279.65 1668.14 279.077 1670.44 279.077C1673.02 279.077 1675.6 278.79 1678.18 278.217C1681.62 277.5 1683.69 273.558 1684.41 266.392C1685.13 260.371 1685.49 245.106 1685.49 220.596V132.444C1685.34 132.444 1680.97 132.588 1672.37 132.874C1663.91 133.018 1657.61 133.161 1653.45 133.304C1647 133.591 1642.27 134.164 1639.26 135.024C1636.39 135.741 1634.17 137.246 1632.59 139.54C1630.73 142.406 1629.51 144.915 1628.94 147.065C1628.51 148.785 1627.72 149.645 1626.57 149.645C1625.28 149.645 1624.64 148.498 1624.64 146.205C1624.64 141.761 1626.14 133.519 1629.15 121.479C1629.73 118.756 1630.59 117.394 1631.73 117.394C1632.02 117.394 1633.1 117.824 1634.96 118.684C1636.97 119.401 1638.97 119.831 1640.98 119.974C1647.86 120.691 1655.03 121.049 1662.48 121.049H1747.62C1752.07 121.049 1757.01 120.691 1762.46 119.974C1766.04 119.258 1767.98 118.899 1768.26 118.899C1769.41 118.899 1769.98 120.404 1769.98 123.414C1769.98 124.848 1769.84 128.861 1769.55 135.454C1769.41 142.048 1769.34 146.348 1769.34 148.355C1769.05 150.648 1768.41 151.795 1767.4 151.795C1765.97 151.795 1765.18 150.361 1765.04 147.495C1765.04 147.351 1764.97 146.993 1764.82 146.42C1764.82 145.846 1764.82 145.416 1764.82 145.13C1764.25 137.533 1755.79 133.519 1739.45 133.089C1733.72 132.803 1724.69 132.588 1712.36 132.444ZM1823.11 182.755V212.856C1823.11 227.619 1824.48 239.014 1827.2 247.041C1830.07 254.925 1834.29 261.16 1839.88 265.747C1847.05 271.623 1856.01 274.562 1866.76 274.562C1878.8 274.562 1888.69 270.692 1896.43 262.951C1901.73 257.648 1905.1 250.911 1906.54 242.741C1908.11 234.428 1908.9 223.391 1908.9 209.631V182.755C1908.9 156.955 1908.76 141.761 1908.47 137.175C1908.18 133.304 1907.4 130.509 1906.11 128.789C1904.96 126.926 1902.67 125.636 1899.23 124.919C1897.51 124.489 1894.93 124.274 1891.49 124.274C1889.05 124.274 1887.83 123.629 1887.83 122.339C1887.83 121.049 1889.34 120.404 1892.35 120.404C1894.35 120.404 1896.57 120.476 1899.01 120.619C1901.45 120.619 1903.67 120.619 1905.68 120.619C1907.83 120.619 1909.76 120.691 1911.48 120.834C1913.2 120.834 1914.56 120.906 1915.57 121.049H1917.07C1917.5 121.049 1920.87 120.978 1927.18 120.834C1933.48 120.548 1938.28 120.404 1941.58 120.404C1944.59 120.404 1946.1 121.049 1946.1 122.339C1946.1 123.629 1944.81 124.274 1942.23 124.274C1940.65 124.274 1938.57 124.489 1935.99 124.919C1933.12 125.493 1931.12 126.711 1929.97 128.574C1928.97 130.438 1928.32 133.304 1928.04 137.175C1927.75 141.761 1927.61 156.955 1927.61 182.755V205.761C1927.61 220.381 1926.24 233.066 1923.52 243.816C1920.8 254.566 1915.35 263.453 1907.18 270.477C1895.14 280.797 1880.23 285.957 1862.46 285.957C1841.53 285.957 1825.62 281.012 1814.73 271.122C1801.97 259.655 1795.59 240.663 1795.59 214.146V182.755C1795.59 156.955 1795.45 141.761 1795.16 137.175C1794.88 133.304 1794.09 130.509 1792.8 128.789C1791.65 126.926 1789.36 125.636 1785.92 124.919C1784.2 124.489 1781.4 124.274 1777.53 124.274C1775.1 124.274 1773.88 123.629 1773.88 122.339C1773.88 121.049 1775.46 120.404 1778.61 120.404C1782.77 120.404 1788.57 120.548 1796.02 120.834C1803.62 120.978 1808.28 121.049 1810 121.049C1811.43 121.049 1815.52 120.978 1822.25 120.834C1828.99 120.548 1833.72 120.404 1836.44 120.404C1839.6 120.404 1841.17 121.049 1841.17 122.339C1841.17 123.629 1840.03 124.274 1837.73 124.274C1836.16 124.274 1834.08 124.489 1831.5 124.919C1828.63 125.493 1826.63 126.711 1825.48 128.574C1824.48 130.438 1823.83 133.304 1823.54 137.175C1823.26 141.761 1823.11 156.955 1823.11 182.755ZM2126.82 122.339L2146.39 255.211C2147.39 262.378 2148.61 267.61 2150.04 270.907C2151.47 274.06 2153.77 276.067 2156.92 276.927C2161.51 278.36 2165.95 279.077 2170.25 279.077C2172.54 279.077 2173.69 279.578 2173.69 280.582C2173.69 282.158 2171.83 282.947 2168.1 282.947C2150.47 282.947 2135.92 282.517 2124.46 281.657C2120.3 281.227 2118.22 280.438 2118.22 279.292C2118.22 278.432 2119.01 277.643 2120.59 276.927C2122.16 276.353 2122.52 273.272 2121.66 267.682L2108.55 171.79L2061.03 270.692C2058.45 275.995 2056.73 279.363 2055.87 280.797C2055.01 282.087 2054.08 282.732 2053.07 282.732C2051.93 282.732 2049.42 279.148 2045.55 271.982C2031.36 244.748 2023.12 228.479 2020.82 223.176C2020.25 221.886 2018.67 218.446 2016.09 212.856C2013.51 207.266 2010.22 200.314 2006.2 192C2002.33 183.687 1999.54 177.667 1997.82 173.94L1986.42 261.016C1985.99 264.886 1985.78 268.255 1985.78 271.122C1985.78 274.705 1987.93 276.998 1992.23 278.002C1995.38 278.718 1998.39 279.077 2001.26 279.077C2003.41 279.077 2004.48 279.578 2004.48 280.582C2004.48 282.158 2002.76 282.947 1999.32 282.947C1995.88 282.947 1991.44 282.803 1985.99 282.517C1980.69 282.373 1977.61 282.302 1976.75 282.302C1975.6 282.302 1972.38 282.373 1967.07 282.517C1961.91 282.803 1958.04 282.947 1955.46 282.947C1952.88 282.947 1951.59 282.158 1951.59 280.582C1951.59 279.578 1952.74 279.077 1955.03 279.077C1957.18 279.077 1959.33 278.862 1961.48 278.432C1965.78 277.428 1968.72 271.767 1970.3 261.446L1991.58 121.264C1992.3 117.538 1993.52 115.674 1995.24 115.674C1996.96 115.674 1998.89 117.896 2001.04 122.339L2059.74 243.601L2118.22 120.834C2119.94 117.394 2121.52 115.674 2122.95 115.674C2124.96 115.674 2126.25 117.896 2126.82 122.339ZM976.354 406.127H952.865C952.444 406.127 952.128 406.408 951.917 406.97L946.23 422.032C945.176 424.63 944.65 426.771 944.65 428.457C944.65 430.633 946.054 431.722 948.863 431.722H950.443C951.496 431.722 952.023 432.003 952.023 432.564C952.023 433.267 951.426 433.618 950.232 433.618C949.109 433.618 947.213 433.548 944.544 433.407C941.946 433.337 940.121 433.302 939.067 433.302L934.538 433.512C931.449 433.583 928.815 433.618 926.639 433.618C925.304 433.618 924.637 433.267 924.637 432.564C924.637 432.003 925.129 431.722 926.112 431.722C927.025 431.722 928.043 431.652 929.166 431.511C931.413 431.23 933.169 430.353 934.433 428.878C935.697 427.333 936.926 425.051 938.119 422.032L964.557 355.885C965.75 353.077 966.734 351.672 967.506 351.672C968.278 351.672 969.156 352.796 970.139 355.043C970.841 356.658 974.739 366.418 981.831 384.324C988.993 402.16 993.803 413.992 996.261 419.82C999.14 426.701 1002.23 430.528 1005.53 431.301C1006.93 431.581 1008.41 431.722 1009.95 431.722C1010.87 431.722 1011.32 432.003 1011.32 432.564C1011.32 433.267 1009.71 433.618 1006.48 433.618C998.332 433.618 991.451 433.548 985.833 433.407C984.218 433.337 983.411 433.056 983.411 432.564C983.411 432.003 983.902 431.687 984.885 431.617C985.306 431.476 985.622 431.195 985.833 430.774C986.044 430.282 986.044 429.756 985.833 429.194L977.407 406.864C977.196 406.373 976.845 406.127 976.354 406.127ZM954.972 400.861H974.352C974.844 400.861 975.019 400.65 974.879 400.229L965.399 374.213C965.048 373.019 964.662 373.019 964.241 374.213L954.551 400.123C954.41 400.615 954.551 400.861 954.972 400.861ZM1057.16 403.073V384.535C1057.16 371.895 1057.09 364.452 1056.95 362.205C1056.81 360.309 1056.42 358.94 1055.79 358.097C1055.23 357.184 1054.11 356.553 1052.42 356.201C1051.58 355.991 1050.21 355.885 1048.31 355.885C1047.12 355.885 1046.52 355.569 1046.52 354.937C1046.52 354.306 1047.3 353.99 1048.84 353.99C1050.95 353.99 1053.79 354.06 1057.37 354.2C1061.02 354.27 1063.23 354.306 1064.01 354.306C1064.85 354.306 1067.17 354.27 1070.96 354.2C1074.75 354.06 1077.84 353.99 1080.23 353.99C1084.79 353.99 1088.41 354.06 1091.08 354.2C1093.82 354.341 1097.33 354.762 1101.61 355.464C1105.89 356.096 1109.75 357.325 1113.2 359.151C1116.64 360.906 1119.73 363.188 1122.46 365.997C1129.28 373.089 1132.68 382.007 1132.68 392.75C1132.68 404.547 1128.85 414.343 1121.2 422.137C1117.97 425.437 1113.44 428.351 1107.61 430.879C1101.86 433.337 1094.62 434.566 1085.92 434.566C1083.18 434.566 1079.14 434.355 1073.8 433.934C1068.47 433.512 1065.03 433.302 1063.48 433.302C1061.16 433.302 1059.16 433.337 1057.48 433.407C1056.63 433.407 1055.37 433.442 1053.69 433.512C1052.07 433.583 1050.91 433.618 1050.21 433.618C1048.8 433.618 1048.1 433.267 1048.1 432.564C1048.1 432.003 1048.66 431.722 1049.79 431.722C1051.05 431.722 1052.32 431.581 1053.58 431.301C1055.12 431.02 1056.14 429.089 1056.63 425.507C1056.99 422.558 1057.16 415.08 1057.16 403.073ZM1070.33 382.849V396.121C1070.33 407.637 1070.4 414.729 1070.54 417.397C1070.75 421.891 1071.13 424.56 1071.7 425.402C1073.59 428.211 1078.19 429.615 1085.49 429.615C1095.82 429.615 1103.89 427.087 1109.72 422.032C1115.62 416.976 1118.57 408.234 1118.57 395.805C1118.57 384.71 1115.2 375.933 1108.46 369.473C1101.08 362.451 1091.11 358.94 1078.54 358.94C1074.96 358.94 1072.68 359.186 1071.7 359.677C1070.85 360.028 1070.43 360.731 1070.43 361.784C1070.36 364.171 1070.33 371.193 1070.33 382.849ZM1207.31 428.667L1180.77 364.312C1179.65 361.573 1178.52 359.712 1177.4 358.729C1176.34 357.676 1174.8 356.869 1172.76 356.307C1171.71 356.026 1170.34 355.885 1168.66 355.885C1167.81 355.885 1167.39 355.569 1167.39 354.937C1167.39 354.306 1168.3 353.99 1170.13 353.99C1172.17 353.99 1174.94 354.06 1178.45 354.2C1182.03 354.27 1184.35 354.306 1185.4 354.306C1186.04 354.306 1187.86 354.27 1190.88 354.2C1193.9 354.06 1196.39 353.99 1198.36 353.99C1199.97 353.99 1200.78 354.306 1200.78 354.937C1200.78 355.569 1200.25 355.885 1199.2 355.885C1197.09 355.885 1195.73 356.131 1195.09 356.623C1194.39 357.114 1194.04 357.852 1194.04 358.835C1194.04 360.099 1194.85 362.802 1196.46 366.945C1201.94 381.199 1208.05 397.315 1214.79 415.291C1215.91 412.412 1218.09 406.864 1221.32 398.649C1224.62 390.433 1227.67 382.849 1230.48 375.898C1233.29 368.876 1235.05 364.347 1235.75 362.31C1236.38 360.695 1236.7 359.396 1236.7 358.413C1236.7 357.36 1236.24 356.693 1235.33 356.412C1234.28 356.061 1232.87 355.885 1231.12 355.885C1229.92 355.885 1229.32 355.605 1229.32 355.043C1229.32 354.341 1230.31 353.99 1232.27 353.99C1234.38 353.99 1236.7 354.06 1239.23 354.2C1241.82 354.27 1243.19 354.306 1243.33 354.306C1243.83 354.306 1245.3 354.27 1247.76 354.2C1250.22 354.06 1252.04 353.99 1253.23 353.99C1254.71 353.99 1255.45 354.306 1255.45 354.937C1255.45 355.569 1254.88 355.885 1253.76 355.885C1251.58 355.885 1249.86 356.307 1248.6 357.149C1246.91 358.343 1244.98 361.503 1242.81 366.629C1241.26 370.351 1239.09 375.266 1236.28 381.375C1233.54 387.484 1231.5 392.083 1230.17 395.173C1227.64 400.931 1224.8 407.391 1221.64 414.553C1218.55 421.716 1216.72 425.964 1216.16 427.298C1216.02 427.579 1215.81 428 1215.53 428.562C1213.84 432.424 1212.68 434.531 1212.05 434.882C1211.84 435.022 1211.59 435.092 1211.31 435.092C1210.68 435.092 1210.12 434.671 1209.63 433.828C1209.14 433.056 1208.36 431.336 1207.31 428.667ZM1301.44 403.073V384.535C1301.44 371.895 1301.37 364.452 1301.23 362.205C1301.01 358.764 1299.82 356.798 1297.64 356.307C1296.59 356.026 1295.33 355.885 1293.85 355.885C1292.73 355.885 1292.17 355.534 1292.17 354.832C1292.17 354.27 1293.01 353.99 1294.7 353.99C1296.1 353.99 1298.49 354.06 1301.86 354.2C1305.3 354.27 1307.48 354.306 1308.39 354.306C1309.16 354.306 1311.13 354.27 1314.29 354.2C1317.45 354.06 1319.76 353.99 1321.24 353.99C1322.71 353.99 1323.45 354.27 1323.45 354.832C1323.45 355.534 1322.89 355.885 1321.76 355.885C1320.92 355.885 1319.87 355.991 1318.6 356.201C1317.2 356.482 1316.22 357.079 1315.66 357.992C1315.16 358.905 1314.85 360.309 1314.71 362.205C1314.57 364.452 1314.5 371.895 1314.5 384.535V403.073C1314.5 415.431 1314.64 423.12 1314.92 426.139C1315.13 427.754 1315.52 428.983 1316.08 429.826C1316.64 430.598 1317.66 431.09 1319.13 431.301C1321.1 431.581 1322.89 431.722 1324.5 431.722C1325.63 431.722 1326.19 432.003 1326.19 432.564C1326.19 433.267 1325.52 433.618 1324.19 433.618C1321.52 433.618 1318.25 433.548 1314.39 433.407C1310.6 433.337 1308.39 433.302 1307.76 433.302C1307.12 433.302 1305.12 433.337 1301.75 433.407C1298.45 433.548 1296.03 433.618 1294.48 433.618C1293.08 433.618 1292.38 433.267 1292.38 432.564C1292.38 432.003 1292.94 431.722 1294.06 431.722C1295.33 431.722 1296.59 431.581 1297.86 431.301C1299.54 430.949 1300.56 429.194 1300.91 426.034C1301.26 423.085 1301.44 415.431 1301.44 403.073ZM1391.3 435.092C1385.19 435.092 1380.06 434.179 1375.92 432.354C1375.08 432.003 1374.51 431.617 1374.23 431.195C1374.02 430.704 1373.92 429.896 1373.92 428.773C1373.92 425.191 1374.09 420.592 1374.44 414.975C1374.58 413.149 1375.01 412.236 1375.71 412.236C1376.41 412.236 1376.76 412.833 1376.76 414.027C1376.76 415.431 1377.08 417.222 1377.71 419.398C1379.82 426.491 1384.84 430.037 1392.77 430.037C1397.2 430.037 1400.64 428.808 1403.09 426.35C1405.62 423.892 1406.89 421.119 1406.89 418.029C1406.89 415.15 1406.18 412.412 1404.78 409.814C1403.37 407.215 1400.64 404.336 1396.56 401.177L1391.72 397.385C1386.1 392.961 1382.1 388.818 1379.71 384.956C1377.32 381.024 1376.13 376.846 1376.13 372.422C1376.13 366.594 1378.38 361.819 1382.87 358.097C1387.36 354.376 1393.23 352.515 1400.46 352.515C1403.55 352.515 1406.78 352.796 1410.15 353.358C1411.77 353.638 1413.21 353.954 1414.47 354.306C1415.45 354.516 1415.94 354.937 1415.94 355.569C1415.94 355.85 1415.91 356.482 1415.84 357.465C1415.77 358.448 1415.7 359.888 1415.63 361.784C1415.56 363.68 1415.52 365.821 1415.52 368.209C1415.52 370.315 1415.14 371.369 1414.36 371.369C1413.66 371.369 1413.31 370.737 1413.31 369.473C1413.31 367.085 1412.4 364.768 1410.57 362.521C1407.83 359.08 1404.01 357.36 1399.09 357.36C1395.23 357.36 1392.17 358.378 1389.93 360.415C1387.68 362.381 1386.56 364.979 1386.56 368.209C1386.56 370.667 1387.33 373.019 1388.87 375.266C1390.49 377.443 1393.44 380.146 1397.72 383.376L1400.67 385.588C1406.99 390.363 1411.45 394.787 1414.05 398.859C1416.65 402.862 1417.95 407.391 1417.95 412.447C1417.95 420.381 1414.64 426.491 1408.04 430.774C1403.55 433.653 1397.97 435.092 1391.3 435.092ZM1507.66 435.092C1500.43 435.092 1493.97 433.828 1488.28 431.301C1482.66 428.773 1478.24 425.472 1475.01 421.4C1471.78 417.257 1469.32 412.868 1467.63 408.234C1466.02 403.529 1465.21 398.719 1465.21 393.804C1465.21 390.082 1465.7 386.36 1466.69 382.639C1467.67 378.847 1469.25 375.125 1471.43 371.474C1473.67 367.823 1476.41 364.628 1479.64 361.889C1482.94 359.08 1487.09 356.833 1492.07 355.148C1497.06 353.393 1502.6 352.515 1508.71 352.515C1521.77 352.515 1532.13 356.061 1539.78 363.153C1547.44 370.245 1551.27 379.83 1551.27 391.908C1551.27 404.266 1547.26 414.553 1539.26 422.769C1531.32 430.985 1520.79 435.092 1507.66 435.092ZM1512.08 429.826C1513.91 429.826 1515.7 429.65 1517.45 429.299C1519.28 428.878 1521.39 427.965 1523.77 426.561C1526.23 425.156 1528.34 423.296 1530.09 420.978C1531.85 418.661 1533.36 415.326 1534.62 410.972C1535.89 406.619 1536.52 401.563 1536.52 395.805C1536.52 384.289 1533.57 375.055 1527.67 368.104C1521.84 361.082 1514.51 357.571 1505.66 357.571C1502.36 357.571 1499.27 358.097 1496.39 359.151C1493.58 360.134 1490.84 361.819 1488.17 364.206C1485.58 366.524 1483.5 369.929 1481.96 374.423C1480.48 378.917 1479.75 384.289 1479.75 390.538C1479.75 401.844 1482.66 411.218 1488.49 418.661C1494.39 426.104 1502.25 429.826 1512.08 429.826ZM1609.06 403.073V384.535C1609.06 371.895 1608.99 364.452 1608.85 362.205C1608.71 360.309 1608.33 358.94 1607.7 358.097C1607.13 357.184 1606.01 356.553 1604.33 356.201C1603.48 355.991 1602.11 355.885 1600.22 355.885C1599.02 355.885 1598.43 355.569 1598.43 354.937C1598.43 354.306 1599.2 353.99 1600.74 353.99C1602.92 353.99 1605.76 354.06 1609.28 354.2C1612.79 354.27 1614.75 354.306 1615.17 354.306C1616.37 354.306 1618.86 354.27 1622.65 354.2C1626.51 354.06 1628.97 353.99 1630.03 353.99C1638.52 353.99 1644.98 355.499 1649.41 358.519C1651.16 359.712 1652.78 361.608 1654.25 364.206C1655.8 366.804 1656.57 369.719 1656.57 372.949C1656.57 377.092 1655.51 381.024 1653.41 384.745C1651.37 388.397 1647.83 392.294 1642.77 396.437C1654.92 411.745 1662.54 421.013 1665.63 424.244C1669.49 428.246 1673.39 430.633 1677.32 431.406C1678.51 431.617 1679.49 431.722 1680.27 431.722C1681.11 431.722 1681.53 432.003 1681.53 432.564C1681.53 433.267 1680.86 433.618 1679.53 433.618H1669.21C1664.15 433.618 1660.39 432.951 1657.94 431.617C1655.83 430.493 1653.72 428.773 1651.62 426.455C1649.51 424.068 1646.81 420.627 1643.51 416.133C1642.38 414.588 1640.98 412.657 1639.29 410.34C1637.68 408.023 1636.34 406.127 1635.29 404.652C1634.24 403.108 1633.5 402.089 1633.08 401.598C1632.66 401.106 1632.03 400.861 1631.18 400.861L1622.34 400.65C1621.77 400.65 1621.49 400.931 1621.49 401.493V402.967C1621.49 415.045 1621.67 422.558 1622.02 425.507C1622.23 427.263 1622.58 428.632 1623.07 429.615C1623.64 430.528 1624.65 431.09 1626.13 431.301C1628.23 431.581 1629.95 431.722 1631.29 431.722C1632.13 431.722 1632.55 432.003 1632.55 432.564C1632.55 433.267 1631.85 433.618 1630.45 433.618C1628.06 433.618 1624.9 433.548 1620.97 433.407C1617.1 433.337 1615.1 433.302 1614.96 433.302C1614.47 433.302 1612.61 433.337 1609.38 433.407C1606.15 433.548 1603.73 433.618 1602.11 433.618C1600.71 433.618 1600.01 433.267 1600.01 432.564C1600.01 432.003 1600.57 431.722 1601.69 431.722C1602.96 431.722 1604.22 431.581 1605.48 431.301C1607.03 431.02 1608.05 429.089 1608.54 425.507C1608.89 422.558 1609.06 415.08 1609.06 403.073ZM1621.49 360.836V392.856C1621.49 393.839 1621.81 394.471 1622.44 394.752C1624.55 395.454 1627.22 395.805 1630.45 395.805C1633.75 395.805 1636.24 395.208 1637.92 394.014C1642.07 390.995 1644.14 385.728 1644.14 378.215C1644.14 371.544 1642.42 366.664 1638.98 363.574C1635.61 360.485 1631.96 358.94 1628.02 358.94C1625.22 358.94 1623.35 359.08 1622.44 359.361C1621.81 359.572 1621.49 360.063 1621.49 360.836ZM1735.13 414.975V406.338C1735.13 402.546 1734.32 398.859 1732.71 395.278C1732.36 394.436 1729.62 389.836 1724.49 381.48C1719.44 373.124 1716 367.612 1714.17 364.944C1711.57 361.152 1709.15 358.589 1706.9 357.255C1705.22 356.342 1703.74 355.885 1702.48 355.885C1701.43 355.885 1700.9 355.569 1700.9 354.937C1700.9 354.306 1701.57 353.99 1702.9 353.99C1703.39 353.99 1705.39 354.06 1708.9 354.2C1712.48 354.27 1714.91 354.306 1716.17 354.306C1716.73 354.306 1718.31 354.27 1720.91 354.2C1723.51 354.06 1725.69 353.99 1727.44 353.99C1728.49 353.99 1729.02 354.306 1729.02 354.937C1729.02 355.289 1728.25 355.675 1726.7 356.096C1725.72 356.307 1725.23 356.939 1725.23 357.992C1725.23 358.694 1725.65 359.888 1726.49 361.573C1726.77 362.135 1732.74 372.633 1744.4 393.066C1744.75 392.224 1747.35 387.449 1752.19 378.742C1757.04 370.035 1759.71 365.154 1760.2 364.101C1761.18 361.924 1761.67 360.099 1761.67 358.624C1761.67 357.22 1760.94 356.342 1759.46 355.991C1758.2 355.71 1757.57 355.359 1757.57 354.937C1757.57 354.306 1758.16 353.99 1759.36 353.99C1760.55 353.99 1762.23 354.06 1764.41 354.2C1766.66 354.27 1768.27 354.306 1769.26 354.306C1770.03 354.306 1771.93 354.27 1774.94 354.2C1778.03 354.06 1779.89 353.99 1780.53 353.99C1781.79 353.99 1782.42 354.27 1782.42 354.832C1782.42 355.534 1781.76 355.885 1780.42 355.885C1778.88 355.885 1777.33 356.307 1775.79 357.149C1774.17 357.922 1772.28 359.642 1770.1 362.31C1768.41 364.347 1764.87 369.859 1759.46 378.847C1754.12 387.835 1750.96 393.488 1749.98 395.805C1748.93 398.333 1748.4 401.844 1748.4 406.338V414.975C1748.4 419.047 1748.51 422.558 1748.72 425.507C1748.93 429.018 1750.37 430.949 1753.04 431.301C1755 431.581 1756.76 431.722 1758.3 431.722C1759.43 431.722 1759.99 432.003 1759.99 432.564C1759.99 433.267 1759.25 433.618 1757.78 433.618C1755.25 433.618 1752.09 433.548 1748.3 433.407C1744.5 433.337 1742.29 433.302 1741.66 433.302C1740.89 433.302 1738.85 433.337 1735.55 433.407C1732.25 433.548 1729.9 433.618 1728.49 433.618C1726.95 433.618 1726.18 433.267 1726.18 432.564C1726.18 432.003 1726.74 431.722 1727.86 431.722C1729.06 431.722 1730.29 431.581 1731.55 431.301C1733.52 430.879 1734.6 428.948 1734.81 425.507C1735.03 422.558 1735.13 419.047 1735.13 414.975Z" fill="#0E285C"/>
</svg>
